<svg width="186" height="146" viewBox="0 0 186 146" fill="none" xmlns="http://www.w3.org/2000/svg">
<path d="M174.375 18.25V104.938C174.375 106.148 173.763 107.308 172.673 108.164C171.583 109.019 170.104 109.5 168.562 109.5H69.75C68.2084 109.5 66.73 109.019 65.6399 108.164C64.5499 107.308 63.9375 106.148 63.9375 104.938V4.5625C63.9375 3.35245 64.5499 2.19196 65.6399 1.33633C66.73 0.480691 68.2084 0 69.75 0L151.125 0L174.375 18.25Z" fill="#F3F3F3"/>
<path d="M139.5 73V109.5H69.75C68.2084 109.5 66.73 109.019 65.6399 108.164C64.5499 107.308 63.9375 106.148 63.9375 104.938V59.3125H122.062C126.687 59.3125 131.123 60.7546 134.393 63.3215C137.663 65.8884 139.5 69.3698 139.5 73Z" fill="#D9D9D9"/>
<path d="M122.062 66.1562H11.625C6.80977 66.1562 2.90625 69.2203 2.90625 73V136.875C2.90625 140.655 6.80977 143.719 11.625 143.719H122.062C126.878 143.719 130.781 140.655 130.781 136.875V73C130.781 69.2203 126.878 66.1562 122.062 66.1562Z" fill="white"/>
<path d="M122.062 146H11.625C8.54186 146 5.58499 145.039 3.40488 143.327C1.22477 141.616 0 139.295 0 136.875V73C0 70.5799 1.22477 68.2589 3.40488 66.5477C5.58499 64.8364 8.54186 63.875 11.625 63.875H122.062C125.146 63.875 128.103 64.8364 130.283 66.5477C132.463 68.2589 133.688 70.5799 133.688 73V136.875C133.688 139.295 132.463 141.616 130.283 143.327C128.103 145.039 125.146 146 122.062 146ZM11.625 68.4375C10.0834 68.4375 8.605 68.9182 7.51494 69.7738C6.42489 70.6295 5.8125 71.7899 5.8125 73V136.875C5.8125 138.085 6.42489 139.246 7.51494 140.101C8.605 140.957 10.0834 141.438 11.625 141.438H122.062C123.604 141.438 125.083 140.957 126.173 140.101C127.263 139.246 127.875 138.085 127.875 136.875V73C127.875 71.7899 127.263 70.6295 126.173 69.7738C125.083 68.9182 123.604 68.4375 122.062 68.4375H11.625Z" fill="#50D9D7"/>
<path d="M174.375 79.8438H156.938V130.031H174.375V79.8438Z" fill="#FFAC00"/>
<path d="M174.375 130.031C168.562 140.981 170.364 137.377 165.656 146C160.948 137.377 162.75 140.981 156.938 130.031H174.375Z" fill="#50D9D7"/>
<path d="M183.094 111.781C182.323 111.781 181.584 111.541 181.039 111.113C180.494 110.685 180.188 110.105 180.188 109.5V84.4062C180.188 83.1962 179.575 82.0357 178.485 81.1801C177.395 80.3244 175.917 79.8438 174.375 79.8438H156.938C156.167 79.8438 155.427 79.6034 154.882 79.1756C154.337 78.7478 154.031 78.1675 154.031 77.5625C154.031 76.9575 154.337 76.3772 154.882 75.9494C155.427 75.5216 156.167 75.2812 156.938 75.2812H174.375C177.458 75.2812 180.415 76.2426 182.595 77.9539C184.775 79.6652 186 81.9861 186 84.4062V109.5C186 110.105 185.694 110.685 185.149 111.113C184.604 111.541 183.865 111.781 183.094 111.781Z" fill="#00BEBD"/>
<path d="M165.656 61.5938C163.344 61.5938 161.126 62.3148 159.491 63.5982C157.856 64.8817 156.938 66.6224 156.938 68.4375V75.2812H174.375V68.4375C174.375 66.6224 173.456 64.8817 171.821 63.5982C170.186 62.3148 167.969 61.5938 165.656 61.5938Z" fill="#EA9706"/>
<path d="M169.405 139.156L165.656 146L161.907 139.156H169.405Z" fill="#00AAA8"/>
<path d="M174.375 18.25H156.938C155.396 18.25 153.917 17.7693 152.827 16.9137C151.737 16.058 151.125 14.8976 151.125 13.6875V0L174.375 18.25Z" fill="#D9D9D9"/>
<path d="M110.438 132.312H23.25C22.4792 132.312 21.74 132.072 21.195 131.644C20.6499 131.217 20.3438 130.636 20.3438 130.031C20.3438 129.426 20.6499 128.846 21.195 128.418C21.74 127.99 22.4792 127.75 23.25 127.75H110.438C111.208 127.75 111.948 127.99 112.493 128.418C113.038 128.846 113.344 129.426 113.344 130.031C113.344 130.636 113.038 131.217 112.493 131.644C111.948 132.072 111.208 132.312 110.438 132.312Z" fill="#93E6E5"/>
<path d="M37.7812 134.594C40.9914 134.594 43.5938 132.551 43.5938 130.031C43.5938 127.511 40.9914 125.469 37.7812 125.469C34.5711 125.469 31.9688 127.511 31.9688 130.031C31.9688 132.551 34.5711 134.594 37.7812 134.594Z" fill="#00BEBD"/>
<path d="M52.3125 112.192V88.5581C52.3236 88.1528 52.4721 87.7571 52.7427 87.4119C53.0133 87.0666 53.3963 86.7841 53.8522 86.5936C54.308 86.4031 54.8203 86.3113 55.3364 86.3278C55.8524 86.3443 56.3535 86.4685 56.7881 86.6875L80.4159 98.5043C80.8238 98.7111 81.1592 98.9949 81.3914 99.3296C81.6236 99.6644 81.7453 100.039 81.7453 100.421C81.7453 100.802 81.6236 101.177 81.3914 101.512C81.1592 101.846 80.8238 102.13 80.4159 102.337L56.7881 114.062C56.3535 114.281 55.8524 114.406 55.3364 114.422C54.8203 114.439 54.308 114.347 53.8522 114.156C53.3963 113.966 53.0133 113.683 52.7427 113.338C52.4721 112.993 52.3236 112.597 52.3125 112.192Z" fill="#FFAC00"/>
<path d="M95.9062 27.375H78.4688V31.9375H95.9062V27.375Z" fill="#D9D9D9"/>
<path d="M159.844 27.375H107.531V31.9375H159.844V27.375Z" fill="#D9D9D9"/>
<path d="M95.9062 38.7812H78.4688V43.3438H95.9062V38.7812Z" fill="#D9D9D9"/>
<path d="M159.844 38.7812H107.531V43.3438H159.844V38.7812Z" fill="#D9D9D9"/>
<path d="M95.9062 50.1875H78.4688V54.75H95.9062V50.1875Z" fill="#D9D9D9"/>
<path d="M159.844 50.1875H107.531V54.75H159.844V50.1875Z" fill="#D9D9D9"/>
<path d="M116.25 79.8438C117.855 79.8438 119.156 78.8224 119.156 77.5625C119.156 76.3026 117.855 75.2812 116.25 75.2812C114.645 75.2812 113.344 76.3026 113.344 77.5625C113.344 78.8224 114.645 79.8438 116.25 79.8438Z" fill="#D9D9D9"/>
<path d="M104.625 79.8438C106.23 79.8438 107.531 78.8224 107.531 77.5625C107.531 76.3026 106.23 75.2812 104.625 75.2812C103.02 75.2812 101.719 76.3026 101.719 77.5625C101.719 78.8224 103.02 79.8438 104.625 79.8438Z" fill="#D9D9D9"/>
<path d="M93 79.8438C94.6051 79.8438 95.9062 78.8224 95.9062 77.5625C95.9062 76.3026 94.6051 75.2812 93 75.2812C91.3949 75.2812 90.0938 76.3026 90.0938 77.5625C90.0938 78.8224 91.3949 79.8438 93 79.8438Z" fill="#D9D9D9"/>
<path d="M31.9688 86.6875H14.5312V91.25H31.9688V86.6875Z" fill="#D9D9D9"/>
<path d="M26.1562 95.8125H14.5312V100.375H26.1562V95.8125Z" fill="#D9D9D9"/>
</svg>
