<svg width="212" height="196" viewBox="0 0 212 196" fill="none" xmlns="http://www.w3.org/2000/svg">
<path d="M106 153.125C138.93 153.125 165.625 128.445 165.625 98C165.625 67.5553 138.93 42.875 106 42.875C73.07 42.875 46.375 67.5553 46.375 98C46.375 128.445 73.07 153.125 106 153.125Z" fill="#F3F3F3"/>
<path d="M125.875 85.75H86.125C85.2465 85.75 84.4039 85.4273 83.7827 84.853C83.1615 84.2787 82.8125 83.4997 82.8125 82.6875V70.4375C82.8125 68.0008 83.8595 65.6639 85.7231 63.941C87.5868 62.218 90.1144 61.25 92.75 61.25H119.25C121.886 61.25 124.413 62.218 126.277 63.941C128.141 65.6639 129.188 68.0008 129.188 70.4375V82.6875C129.188 83.4997 128.839 84.2787 128.217 84.853C127.596 85.4273 126.754 85.75 125.875 85.75ZM89.4375 79.625H122.562V70.4375C122.562 69.6253 122.214 68.8463 121.592 68.272C120.971 67.6977 120.129 67.375 119.25 67.375H92.75C91.8715 67.375 91.0289 67.6977 90.4077 68.272C89.7865 68.8463 89.4375 69.6253 89.4375 70.4375V79.625Z" fill="#FFAC00"/>
<path d="M66.25 88.8125H145.75V125.562C145.75 127.187 145.052 128.745 143.81 129.894C142.567 131.042 140.882 131.688 139.125 131.688H72.875C71.1179 131.688 69.4328 131.042 68.1904 129.894C66.948 128.745 66.25 127.187 66.25 125.562V88.8125Z" fill="#FFAC00"/>
<path d="M149.062 82.6875C149.062 94.0494 149.427 94.5088 147.737 96.5606L141.112 104.738C140.495 105.498 139.695 106.116 138.775 106.541C137.855 106.966 136.841 107.188 135.812 107.188H76.1875C75.159 107.188 74.1446 106.966 73.2247 106.541C72.3048 106.116 71.5046 105.498 70.8875 104.738C63.5006 95.55 62.9375 95.55 62.9375 92.8856V82.6875C62.9375 81.063 63.6355 79.5051 64.8779 78.3565C66.1203 77.2078 67.8054 76.5625 69.5625 76.5625H142.438C144.195 76.5625 145.88 77.2078 147.122 78.3565C148.365 79.5051 149.062 81.063 149.062 82.6875Z" fill="#EA9706"/>
<path d="M125.875 113.312C124.996 113.312 124.154 112.99 123.533 112.416C122.911 111.841 122.562 111.062 122.562 110.25V104.125C122.562 103.313 122.911 102.534 123.533 101.959C124.154 101.385 124.996 101.062 125.875 101.062C126.754 101.062 127.596 101.385 128.217 101.959C128.839 102.534 129.188 103.313 129.188 104.125V110.25C129.188 111.062 128.839 111.841 128.217 112.416C127.596 112.99 126.754 113.312 125.875 113.312Z" fill="#F3F3F3"/>
<path d="M86.125 113.312C85.2465 113.312 84.4039 112.99 83.7827 112.416C83.1615 111.841 82.8125 111.062 82.8125 110.25V104.125C82.8125 103.313 83.1615 102.534 83.7827 101.959C84.4039 101.385 85.2465 101.062 86.125 101.062C87.0035 101.062 87.8461 101.385 88.4673 101.959C89.0885 102.534 89.4375 103.313 89.4375 104.125V110.25C89.4375 111.062 89.0885 111.841 88.4673 112.416C87.8461 112.99 87.0035 113.312 86.125 113.312Z" fill="#F3F3F3"/>
<path d="M54.9212 37.7912C69.4805 27.1955 87.4711 21.4344 106 21.4344C124.529 21.4344 142.519 27.1955 157.079 37.7912L166.486 29.0631C149.398 16.1997 128.036 9.17615 106 9.17615C83.964 9.17615 62.6017 16.1997 45.5137 29.0631L54.9212 37.7912Z" fill="#00BEBD"/>
<path d="M180.564 42.0787L171.124 50.7762C182.584 64.2367 188.816 80.8695 188.816 98C188.816 115.13 182.584 131.763 171.124 145.224L180.564 153.921C194.478 138.123 202.075 118.373 202.075 98C202.075 77.6271 194.478 57.8771 180.564 42.0787Z" fill="#00AAA8"/>
<path d="M157.079 158.209C142.519 168.805 124.529 174.566 106 174.566C87.4711 174.566 69.4805 168.805 54.9212 158.209L45.5137 166.937C62.6017 179.8 83.964 186.824 106 186.824C128.036 186.824 149.398 179.8 166.486 166.937L157.079 158.209Z" fill="#00BEBD"/>
<path d="M40.8762 145.224C29.4155 131.763 23.1841 115.13 23.1841 98C23.1841 80.8695 29.4155 64.2367 40.8762 50.7762L31.4356 42.0787C17.5222 57.8771 9.92523 77.6271 9.92523 98C9.92523 118.373 17.5222 138.123 31.4356 153.921L40.8762 145.224Z" fill="#00AAA8"/>
<path d="M106 36.75C116.977 36.75 125.875 28.5232 125.875 18.375C125.875 8.22677 116.977 0 106 0C95.0233 0 86.125 8.22677 86.125 18.375C86.125 28.5232 95.0233 36.75 106 36.75Z" fill="#50D9D7"/>
<path d="M106 196C116.977 196 125.875 187.773 125.875 177.625C125.875 167.477 116.977 159.25 106 159.25C95.0233 159.25 86.125 167.477 86.125 177.625C86.125 187.773 95.0233 196 106 196Z" fill="#50D9D7"/>
<path d="M192.125 116.375C203.102 116.375 212 108.148 212 98C212 87.8518 203.102 79.625 192.125 79.625C181.148 79.625 172.25 87.8518 172.25 98C172.25 108.148 181.148 116.375 192.125 116.375Z" fill="#50D9D7"/>
<path d="M19.875 116.375C30.8517 116.375 39.75 108.148 39.75 98C39.75 87.8518 30.8517 79.625 19.875 79.625C8.89834 79.625 0 87.8518 0 98C0 108.148 8.89834 116.375 19.875 116.375Z" fill="#50D9D7"/>
</svg>
