<svg width="213" height="197" viewBox="0 0 213 197" fill="none" xmlns="http://www.w3.org/2000/svg">
<path d="M26.625 113.891H6.65625C2.9801 113.891 0 116.647 0 120.047V190.844C0 194.244 2.9801 197 6.65625 197H26.625C30.3011 197 33.2812 194.244 33.2812 190.844V120.047C33.2812 116.647 30.3011 113.891 26.625 113.891Z" fill="#50D9D7"/>
<path d="M33.2812 120.047H47.4258C50.1245 120.058 52.7632 119.311 54.9921 117.903C57.2209 116.496 58.9347 114.496 59.9062 112.167L70.8558 85.7873C75.1491 75.4141 93.1875 80.0312 93.1875 92.3437V107.734C93.1875 109.367 93.8888 110.933 95.1371 112.087C96.3854 113.242 98.0784 113.891 99.8438 113.891H141.545C143.424 113.88 145.283 114.237 147.002 114.939C148.721 115.641 150.259 116.671 151.517 117.962C152.774 119.253 153.722 120.775 154.298 122.429C154.873 124.083 155.064 125.831 154.858 127.557L147.835 186.042C147.473 189.067 145.913 191.861 143.454 193.885C140.996 195.909 137.814 197.018 134.523 197H77.3456C64.2328 197 62.2359 190.844 49.1231 190.844H33.2812" fill="#FFAC00"/>
<path d="M179.719 21.5469V64.6406C179.719 66.2734 179.017 67.8392 177.769 68.9937C176.521 70.1483 174.828 70.7969 173.062 70.7969H59.9062C58.9092 70.7974 57.9249 71.0052 57.0263 71.4048C56.1277 71.8044 55.3376 72.3856 54.7144 73.1055L48.5906 80.1852C47.9669 80.9042 47.1766 81.4845 46.278 81.8832C45.3794 82.2819 44.3954 82.4889 43.3988 82.4889C42.4021 82.4889 41.4181 82.2819 40.5195 81.8832C39.6209 81.4845 38.8306 80.9042 38.2069 80.1852L31.95 73.1055C31.3129 72.3691 30.5014 71.778 29.5781 71.3778C28.6548 70.9775 27.6445 70.7787 26.625 70.7969H19.9688C18.2034 70.7969 16.5104 70.1483 15.2621 68.9937C14.0138 67.8392 13.3125 66.2734 13.3125 64.6406V21.5469C13.3125 19.9141 14.0138 18.3483 15.2621 17.1937C16.5104 16.0392 18.2034 15.3906 19.9688 15.3906H173.062C174.828 15.3906 176.521 16.0392 177.769 17.1937C179.017 18.3483 179.719 19.9141 179.719 21.5469Z" fill="#F3F3F3"/>
<path d="M73.2188 30.7812H26.625V36.9375H73.2188V30.7812Z" fill="#D9D9D9"/>
<path d="M166.406 30.7812H86.5312V36.9375H166.406V30.7812Z" fill="#D9D9D9"/>
<path d="M119.812 55.4062H146.438V49.25H119.812V55.4062Z" fill="#D9D9D9"/>
<path d="M26.625 55.4062L106.5 55.4062V49.25L26.625 49.25V55.4062Z" fill="#D9D9D9"/>
<path d="M179.719 21.5469V54.7906C174.49 53.8001 169.596 51.661 165.448 48.5538C161.301 45.4466 158.022 41.4625 155.889 36.9375H166.406V30.7812H153.759C152.632 25.6662 152.93 20.37 154.625 15.3906H173.063C174.828 15.3906 176.521 16.0392 177.769 17.1937C179.017 18.3483 179.719 19.9141 179.719 21.5469Z" fill="#D9D9D9"/>
<path d="M166.406 30.7812V36.9375H155.889C154.936 34.9643 154.222 32.8996 153.759 30.7812H166.406Z" fill="#C8C8C8"/>
<path d="M186.375 49.25C201.08 49.25 213 38.225 213 24.625C213 11.025 201.08 0 186.375 0C171.67 0 159.75 11.025 159.75 24.625C159.75 38.225 171.67 49.25 186.375 49.25Z" fill="#00BEBD"/>
<path d="M204.513 32.3203C202.917 35.5274 200.359 38.244 197.145 40.1482C193.93 42.0525 190.192 43.0646 186.375 43.0646C182.557 43.0646 178.82 42.0525 175.605 40.1482C172.391 38.244 169.833 35.5274 168.237 32.3203C169.833 29.1132 172.391 26.3966 175.605 24.4924C178.82 22.5881 182.557 21.576 186.375 21.576C190.192 21.576 193.93 22.5881 197.145 24.4924C200.359 26.3966 202.917 29.1132 204.513 32.3203Z" fill="#93E6E5"/>
<path d="M186.375 24.625C191.889 24.625 196.359 20.4906 196.359 15.3906C196.359 10.2906 191.889 6.15625 186.375 6.15625C180.861 6.15625 176.391 10.2906 176.391 15.3906C176.391 20.4906 180.861 24.625 186.375 24.625Z" fill="#93E6E5"/>
</svg>
