<svg width="228" height="182" viewBox="0 0 228 182" fill="none" xmlns="http://www.w3.org/2000/svg">
<path d="M17.8125 31.2812H210.188C212.077 31.2812 213.889 31.8805 215.226 32.9471C216.562 34.0137 217.312 35.4603 217.312 36.9688V150.719H10.6875V36.9688C10.6875 35.4603 11.4382 34.0137 12.7744 32.9471C14.1106 31.8805 15.9228 31.2812 17.8125 31.2812Z" fill="white"/>
<path d="M217.312 153.562H10.6875C9.74267 153.562 8.83653 153.263 8.16843 152.73C7.50033 152.196 7.125 151.473 7.125 150.719V36.9688C7.125 34.7061 8.251 32.5362 10.2553 30.9362C12.2596 29.3363 14.978 28.4375 17.8125 28.4375H210.188C213.022 28.4375 215.74 29.3363 217.745 30.9362C219.749 32.5362 220.875 34.7061 220.875 36.9688V150.719C220.875 151.473 220.5 152.196 219.832 152.73C219.163 153.263 218.257 153.562 217.312 153.562ZM14.25 147.875H213.75V36.9688C213.75 36.2145 213.375 35.4912 212.707 34.9579C212.038 34.4246 211.132 34.125 210.188 34.125H17.8125C16.8677 34.125 15.9615 34.4246 15.2934 34.9579C14.6253 35.4912 14.25 36.2145 14.25 36.9688V147.875Z" fill="#50D9D7"/>
<path d="M3.5625 147.875H224.438C225.382 147.875 226.288 148.175 226.957 148.708C227.625 149.241 228 149.965 228 150.719V156.406C228 158.669 226.874 160.839 224.87 162.439C222.865 164.039 220.147 164.938 217.312 164.938H10.6875C7.853 164.938 5.13459 164.039 3.1303 162.439C1.126 160.839 0 158.669 0 156.406L0 150.719C0 149.965 0.375334 149.241 1.04343 148.708C1.71153 148.175 2.61767 147.875 3.5625 147.875Z" fill="#00BEBD"/>
<path d="M42.75 28.4375H28.5V22.75C28.5 21.2416 29.2507 19.7949 30.5869 18.7283C31.9231 17.6617 33.7353 17.0625 35.625 17.0625C37.5147 17.0625 39.3269 17.6617 40.6631 18.7283C41.9993 19.7949 42.75 21.2416 42.75 22.75V28.4375Z" fill="#FFAC00"/>
<path d="M199.5 28.4375H185.25V22.75C185.25 21.2416 186.001 19.7949 187.337 18.7283C188.673 17.6617 190.485 17.0625 192.375 17.0625C194.265 17.0625 196.077 17.6617 197.413 18.7283C198.749 19.7949 199.5 21.2416 199.5 22.75V28.4375Z" fill="#FFAC00"/>
<path d="M78.375 51.1875H64.125C63.1802 51.1875 62.274 50.8879 61.6059 50.3546C60.9378 49.8213 60.5625 49.098 60.5625 48.3438C60.5625 47.5895 60.9378 46.8662 61.6059 46.3329C62.274 45.7996 63.1802 45.5 64.125 45.5H78.375C79.3198 45.5 80.226 45.7996 80.8941 46.3329C81.5622 46.8662 81.9375 47.5895 81.9375 48.3438C81.9375 49.098 81.5622 49.8213 80.8941 50.3546C80.226 50.8879 79.3198 51.1875 78.375 51.1875Z" fill="#50D9D7"/>
<path d="M71.25 62.5625C70.3052 62.5625 69.399 62.2629 68.7309 61.7296C68.0628 61.1963 67.6875 60.473 67.6875 59.7188V48.3438C67.6875 47.5895 68.0628 46.8662 68.7309 46.3329C69.399 45.7996 70.3052 45.5 71.25 45.5C72.1948 45.5 73.101 45.7996 73.7691 46.3329C74.4372 46.8662 74.8125 47.5895 74.8125 48.3438V59.7188C74.8125 60.473 74.4372 61.1963 73.7691 61.7296C73.101 62.2629 72.1948 62.5625 71.25 62.5625Z" fill="#50D9D7"/>
<path d="M96.1875 62.5625C94.0737 62.5625 92.0074 62.0622 90.2498 61.1247C88.4923 60.1873 87.1224 58.8549 86.3135 57.296C85.5046 55.7371 85.293 54.0218 85.7054 52.3669C86.1177 50.712 87.1356 49.1919 88.6303 47.9987C90.125 46.8056 92.0293 45.9931 94.1025 45.6639C96.1756 45.3347 98.3245 45.5037 100.277 46.1494C102.23 46.7951 103.899 47.8886 105.074 49.2915C106.248 50.6945 106.875 52.3439 106.875 54.0313C106.875 56.2939 105.749 58.4638 103.745 60.0638C101.74 61.6637 99.022 62.5625 96.1875 62.5625ZM96.1875 51.1875C95.4829 51.1875 94.7941 51.3543 94.2083 51.6668C93.6224 51.9792 93.1658 52.4234 92.8962 52.943C92.6265 53.4626 92.556 54.0344 92.6935 54.586C92.8309 55.1377 93.1702 55.6444 93.6684 56.0421C94.1667 56.4398 94.8014 56.7106 95.4925 56.8204C96.1835 56.9301 96.8998 56.8738 97.5508 56.6585C98.2018 56.4433 98.7582 56.0788 99.1496 55.6112C99.5411 55.1435 99.75 54.5937 99.75 54.0313C99.75 53.277 99.3747 52.5537 98.7066 52.0204C98.0385 51.4871 97.1323 51.1875 96.1875 51.1875Z" fill="#50D9D7"/>
<path d="M131.812 62.5625H124.688C123.743 62.5625 122.837 62.2629 122.168 61.7296C121.5 61.1963 121.125 60.473 121.125 59.7188V48.3438C121.125 47.5895 121.5 46.8662 122.168 46.3329C122.837 45.7996 123.743 45.5 124.688 45.5H131.812C134.647 45.5 137.365 46.3988 139.37 47.9987C141.374 49.5987 142.5 51.7686 142.5 54.0312C142.5 56.2939 141.374 58.4638 139.37 60.0638C137.365 61.6637 134.647 62.5625 131.812 62.5625ZM128.25 56.875H131.812C132.757 56.875 133.663 56.5754 134.332 56.0421C135 55.5088 135.375 54.7855 135.375 54.0312C135.375 53.277 135 52.5537 134.332 52.0204C133.663 51.4871 132.757 51.1875 131.812 51.1875H128.25V56.875Z" fill="#50D9D7"/>
<path d="M153.188 102.375H74.8125V108.062H153.188V102.375Z" fill="#D9D9D9"/>
<path d="M156.75 62.5625C154.636 62.5625 152.57 62.0622 150.812 61.1247C149.055 60.1873 147.685 58.8549 146.876 57.296C146.067 55.7371 145.855 54.0218 146.268 52.3669C146.68 50.712 147.698 49.1919 149.193 47.9987C150.687 46.8056 152.592 45.9931 154.665 45.6639C156.738 45.3347 158.887 45.5037 160.84 46.1494C162.793 46.7951 164.462 47.8886 165.636 49.2915C166.811 50.6945 167.438 52.3439 167.438 54.0313C167.438 56.2939 166.311 58.4638 164.307 60.0638C162.303 61.6637 159.585 62.5625 156.75 62.5625ZM156.75 51.1875C156.045 51.1875 155.357 51.3543 154.771 51.6668C154.185 51.9792 153.728 52.4234 153.459 52.943C153.189 53.4626 153.118 54.0344 153.256 54.586C153.393 55.1377 153.733 55.6444 154.231 56.0421C154.729 56.4398 155.364 56.7106 156.055 56.8204C156.746 56.9301 157.462 56.8738 158.113 56.6585C158.764 56.4433 159.321 56.0788 159.712 55.6112C160.104 55.1435 160.313 54.5937 160.313 54.0313C160.313 53.277 159.937 52.5537 159.269 52.0204C158.601 51.4871 157.695 51.1875 156.75 51.1875Z" fill="#50D9D7"/>
<path d="M71.25 76.7812H35.625C31.69 76.7812 28.5 79.3276 28.5 82.4688V127.969C28.5 131.11 31.69 133.656 35.625 133.656H71.25C75.185 133.656 78.375 131.11 78.375 127.969V82.4688C78.375 79.3276 75.185 76.7812 71.25 76.7812Z" fill="#50D9D7"/>
<path d="M131.812 76.7812H96.1875C92.2525 76.7812 89.0625 79.3276 89.0625 82.4688V127.969C89.0625 131.11 92.2525 133.656 96.1875 133.656H131.812C135.748 133.656 138.938 131.11 138.938 127.969V82.4688C138.938 79.3276 135.748 76.7812 131.812 76.7812Z" fill="#00BEBD"/>
<path d="M192.375 76.7812H156.75C152.815 76.7812 149.625 79.3276 149.625 82.4688V127.969C149.625 131.11 152.815 133.656 156.75 133.656H192.375C196.31 133.656 199.5 131.11 199.5 127.969V82.4688C199.5 79.3276 196.31 76.7812 192.375 76.7812Z" fill="#FFAC00"/>
<path d="M71.25 91H42.75V96.6875H71.25V91Z" fill="white"/>
<path d="M71.25 102.375H35.625V108.062H71.25V102.375Z" fill="white"/>
<path d="M71.25 113.75H35.625V119.438H71.25V113.75Z" fill="white"/>
<path d="M131.812 91H103.312V96.6875H131.812V91Z" fill="white"/>
<path d="M131.812 102.375H96.1875V108.062H131.812V102.375Z" fill="white"/>
<path d="M131.812 113.75H96.1875V119.438H131.812V113.75Z" fill="white"/>
<path d="M192.375 91H163.875V96.6875H192.375V91Z" fill="white"/>
<path d="M192.375 102.375H156.75V108.062H192.375V102.375Z" fill="white"/>
<path d="M192.375 113.75H156.75V119.438H192.375V113.75Z" fill="white"/>
<path d="M185.25 82.4687C183.326 82.4687 183.219 82.0422 175.596 75.9565C174.925 75.421 174.548 74.6948 174.548 73.9375C174.548 73.1802 174.925 72.4539 175.596 71.9184C176.266 71.3829 177.176 71.0821 178.125 71.0821C179.074 71.0821 179.984 71.3829 180.654 71.9184L185.25 75.6153L196.971 66.2309C197.641 65.6954 198.551 65.3946 199.5 65.3946C200.449 65.3946 201.359 65.6954 202.029 66.2309C202.7 66.7664 203.077 67.4927 203.077 68.25C203.077 69.0073 202.7 69.7335 202.029 70.269L187.779 81.644C187.446 81.9076 187.052 82.1161 186.618 82.2576C186.184 82.3992 185.719 82.4709 185.25 82.4687Z" fill="#50D9D7"/>
<path d="M32.0625 71.0938C34.03 71.0938 35.625 69.8206 35.625 68.25C35.625 66.6794 34.03 65.4062 32.0625 65.4062C30.095 65.4062 28.5 66.6794 28.5 68.25C28.5 69.8206 30.095 71.0938 32.0625 71.0938Z" fill="#93E6E5"/>
<path d="M46.3125 71.0938C48.28 71.0938 49.875 69.8206 49.875 68.25C49.875 66.6794 48.28 65.4062 46.3125 65.4062C44.345 65.4062 42.75 66.6794 42.75 68.25C42.75 69.8206 44.345 71.0938 46.3125 71.0938Z" fill="#93E6E5"/>
</svg>
