<svg width="251" height="259" viewBox="0 0 251 259" fill="none" xmlns="http://www.w3.org/2000/svg">
<path d="M133.344 68.7969H117.656C116.616 68.7969 115.619 68.3705 114.883 67.6116C114.148 66.8526 113.734 65.8233 113.734 64.75V32.375H105.891C105.145 32.3762 104.414 32.158 103.784 31.7458C103.154 31.3337 102.651 30.7447 102.334 30.048C102.017 29.3513 101.899 28.5758 101.994 27.8125C102.089 27.0491 102.393 26.3295 102.871 25.7381L122.48 1.45686C122.848 0.998586 123.31 0.629714 123.832 0.376525C124.354 0.123337 124.923 -0.00793457 125.5 -0.00793457C126.077 -0.00793457 126.646 0.123337 127.168 0.376525C127.69 0.629714 128.152 0.998586 128.52 1.45686L148.129 25.7381C148.607 26.3295 148.911 27.0491 149.006 27.8125C149.101 28.5758 148.983 29.3513 148.666 30.048C148.349 30.7447 147.846 31.3337 147.216 31.7458C146.586 32.158 145.855 32.3762 145.109 32.375H137.266V64.75C137.266 65.8233 136.852 66.8526 136.117 67.6116C135.381 68.3705 134.384 68.7969 133.344 68.7969Z" fill="#00BEBD"/>
<path d="M72.79 92.3092L50.6314 69.4039L45.0623 75.11C44.5492 75.6444 43.9018 76.0207 43.193 76.1966C42.4841 76.3724 41.7417 76.3409 41.0492 76.1055C40.3567 75.8701 39.7415 75.4402 39.2727 74.864C38.8039 74.2879 38.5 73.5883 38.3952 72.8438L35.6106 41.3591C35.5561 40.7658 35.6292 40.1674 35.8247 39.6066C36.0202 39.0459 36.3334 38.5366 36.7418 38.1152C37.1502 37.6938 37.6437 37.3706 38.1871 37.1689C38.7306 36.9671 39.3105 36.8917 39.8855 36.948L70.5937 39.6189C71.3316 39.6949 72.0334 39.9851 72.6178 40.4559C73.2023 40.9267 73.6454 41.5589 73.8959 42.279C74.1463 42.9992 74.1937 43.7778 74.0327 44.5246C73.8717 45.2715 73.5088 45.9559 72.9861 46.4986L67.4562 52.2452L89.6541 75.11C90.0217 75.4862 90.3134 75.9338 90.5125 76.427C90.7116 76.9201 90.8141 77.4491 90.8141 77.9833C90.8141 78.5175 90.7116 79.0465 90.5125 79.5396C90.3134 80.0328 90.0217 80.4804 89.6541 80.8566L78.4375 92.3092C78.0716 92.7009 77.633 93.0124 77.1479 93.2252C76.6627 93.438 76.1409 93.5477 75.6137 93.5477C75.0866 93.5477 74.5648 93.438 74.0796 93.2252C73.5945 93.0124 73.1558 92.7009 72.79 92.3092Z" fill="#50D9D7"/>
<path d="M27.4531 153.781C25.4138 153.781 26.6295 154.307 1.41189 132.616C0.967772 132.236 0.610293 131.76 0.364925 131.222C0.119557 130.683 -0.00765991 130.095 -0.00765991 129.5C-0.00765991 128.905 0.119557 128.317 0.364925 127.778C0.610293 127.24 0.967772 126.764 1.41189 126.384L24.9431 106.15C25.5163 105.657 26.2136 105.343 26.9534 105.245C27.6932 105.147 28.4448 105.269 29.1199 105.596C29.7951 105.923 30.3659 106.442 30.7653 107.092C31.1647 107.742 31.3762 108.496 31.375 109.266V117.359H62.75C63.7902 117.359 64.7877 117.786 65.5232 118.545C66.2587 119.304 66.6719 120.333 66.6719 121.406V137.594C66.6719 138.667 66.2587 139.696 65.5232 140.455C64.7877 141.214 63.7902 141.641 62.75 141.641H31.375V149.734C31.375 150.808 30.9618 151.837 30.2263 152.596C29.4908 153.355 28.4933 153.781 27.4531 153.781Z" fill="#00BEBD"/>
<path d="M39.5325 222.254C38.9864 222.257 38.4458 222.141 37.9454 221.915C37.4451 221.69 36.9959 221.359 36.6267 220.943C36.2575 220.528 35.9764 220.038 35.8014 219.504C35.6265 218.97 35.5615 218.405 35.6106 217.843L38.3952 186.359C38.4688 185.597 38.75 184.873 39.2063 184.27C39.6626 183.667 40.2752 183.21 40.9731 182.951C41.671 182.693 42.4256 182.644 43.1494 182.81C43.8732 182.976 44.5365 183.351 45.0624 183.89L50.6314 189.596L72.79 166.691C73.1546 166.311 73.5884 166.01 74.0663 165.805C74.5442 165.599 75.0568 165.494 75.5746 165.494C76.0923 165.494 76.6049 165.599 77.0828 165.805C77.5607 166.01 77.9945 166.311 78.3591 166.691L89.458 178.062C89.8256 178.439 90.1173 178.886 90.3165 179.379C90.5156 179.873 90.6181 180.402 90.6181 180.936C90.6181 181.47 90.5156 181.999 90.3165 182.492C90.1173 182.985 89.8256 183.433 89.458 183.809L67.2602 206.674L72.79 212.42C73.3127 212.963 73.6756 213.648 73.8366 214.394C73.9977 215.141 73.9502 215.92 73.6998 216.64C73.4494 217.36 73.0062 217.992 72.4218 218.463C71.8373 218.934 71.1355 219.224 70.3977 219.3L39.5325 222.254Z" fill="#50D9D7"/>
<path d="M122.48 257.543L102.871 233.262C102.393 232.67 102.089 231.951 101.994 231.188C101.899 230.424 102.017 229.649 102.334 228.952C102.651 228.255 103.154 227.666 103.784 227.254C104.414 226.842 105.145 226.624 105.891 226.625H113.734V194.25C113.734 193.177 114.148 192.147 114.883 191.388C115.619 190.629 116.616 190.203 117.656 190.203H133.344C134.384 190.203 135.381 190.629 136.117 191.388C136.852 192.147 137.266 193.177 137.266 194.25V226.625H145.109C145.855 226.624 146.586 226.842 147.216 227.254C147.846 227.666 148.349 228.255 148.666 228.952C148.983 229.649 149.101 230.424 149.006 231.188C148.911 231.951 148.607 232.67 148.129 233.262L128.52 257.543C128.152 258.001 127.69 258.37 127.168 258.623C126.646 258.877 126.077 259.008 125.5 259.008C124.923 259.008 124.354 258.877 123.832 258.623C123.31 258.37 122.848 258.001 122.48 257.543Z" fill="#00BEBD"/>
<path d="M211.467 222.254L180.602 219.381C179.865 219.305 179.163 219.015 178.578 218.544C177.994 218.073 177.551 217.441 177.3 216.721C177.05 216.001 177.002 215.222 177.163 214.475C177.324 213.729 177.687 213.044 178.21 212.501L183.74 206.755L161.542 183.89C161.174 183.514 160.883 183.066 160.684 182.573C160.484 182.08 160.382 181.551 160.382 181.017C160.382 180.482 160.484 179.954 160.684 179.46C160.883 178.967 161.174 178.52 161.542 178.143L172.563 166.691C172.927 166.311 173.361 166.01 173.839 165.805C174.317 165.599 174.829 165.494 175.347 165.494C175.865 165.494 176.377 165.599 176.855 165.805C177.333 166.01 177.767 166.311 178.132 166.691L200.29 189.596L205.859 183.89C206.385 183.351 207.048 182.976 207.772 182.81C208.496 182.644 209.251 182.693 209.948 182.951C210.646 183.21 211.259 183.667 211.715 184.27C212.172 184.873 212.453 185.597 212.526 186.359L215.311 217.843C215.36 218.398 215.297 218.957 215.127 219.485C214.956 220.013 214.682 220.5 214.321 220.914C213.961 221.328 213.521 221.66 213.03 221.891C212.539 222.122 212.007 222.245 211.467 222.254Z" fill="#50D9D7"/>
<path d="M223.547 153.781C222.507 153.781 221.509 153.355 220.774 152.596C220.038 151.837 219.625 150.808 219.625 149.734V141.641H188.25C187.21 141.641 186.212 141.214 185.477 140.455C184.741 139.696 184.328 138.667 184.328 137.594V121.406C184.328 120.333 184.741 119.304 185.477 118.545C186.212 117.786 187.21 117.359 188.25 117.359H219.625V109.266C219.624 108.496 219.835 107.742 220.235 107.092C220.634 106.442 221.205 105.923 221.88 105.596C222.555 105.269 223.307 105.147 224.047 105.245C224.786 105.343 225.484 105.657 226.057 106.15L249.588 126.384C250.032 126.764 250.39 127.24 250.635 127.778C250.88 128.317 251.008 128.905 251.008 129.5C251.008 130.095 250.88 130.683 250.635 131.222C250.39 131.76 250.032 132.236 249.588 132.616C223.782 154.793 225.508 153.781 223.547 153.781Z" fill="#00BEBD"/>
<path d="M172.563 92.3092L161.542 80.9375C161.174 80.5613 160.883 80.1137 160.684 79.6206C160.484 79.1274 160.382 78.5985 160.382 78.0642C160.382 77.53 160.484 77.001 160.684 76.5079C160.883 76.0147 161.174 75.5672 161.542 75.1909L183.74 52.3261L178.21 46.5795C177.687 46.0369 177.324 45.3524 177.163 44.6056C177.002 43.8587 177.05 43.0801 177.3 42.3599C177.551 41.6398 177.994 41.0077 178.578 40.5368C179.163 40.066 179.865 39.7758 180.602 39.6999L211.115 36.8266C211.69 36.7703 212.269 36.8457 212.813 37.0475C213.356 37.2492 213.85 37.5724 214.258 37.9938C214.667 38.4152 214.98 38.9245 215.175 39.4852C215.371 40.046 215.444 40.6444 215.389 41.2377L212.605 72.8438C212.531 73.6051 212.25 74.3293 211.794 74.9324C211.337 75.5354 210.725 75.9927 210.027 76.2511C209.329 76.5095 208.574 76.5585 207.851 76.3923C207.127 76.2262 206.464 75.8517 205.938 75.3124L200.369 69.6063L178.21 92.5116C177.831 92.8904 177.382 93.1865 176.89 93.3821C176.397 93.5777 175.872 93.6688 175.345 93.6499C174.817 93.631 174.299 93.5026 173.821 93.2722C173.343 93.0418 172.915 92.7143 172.563 92.3092Z" fill="#50D9D7"/>
<path d="M125.5 202.344C164.488 202.344 196.094 169.73 196.094 129.5C196.094 89.2695 164.488 56.6562 125.5 56.6562C86.5121 56.6562 54.9062 89.2695 54.9062 129.5C54.9062 169.73 86.5121 202.344 125.5 202.344Z" fill="#F3F3F3"/>
<path d="M149.031 113.312H101.969C100.929 113.312 99.9311 112.886 99.1956 112.127C98.4601 111.368 98.0469 110.339 98.0469 109.266V93.0781C98.0469 89.8582 99.2865 86.7702 101.493 84.4934C103.699 82.2166 106.692 80.9375 109.812 80.9375H141.188C144.308 80.9375 147.301 82.2166 149.507 84.4934C151.714 86.7702 152.953 89.8582 152.953 93.0781V109.266C152.953 110.339 152.54 111.368 151.804 112.127C151.069 112.886 150.071 113.312 149.031 113.312ZM105.891 105.219H145.109V93.0781C145.109 92.0048 144.696 90.9755 143.961 90.2165C143.225 89.4576 142.228 89.0312 141.188 89.0312H109.812C108.772 89.0312 107.775 89.4576 107.039 90.2165C106.304 90.9755 105.891 92.0048 105.891 93.0781V105.219Z" fill="#FFAC00"/>
<path d="M78.4375 117.359H172.562V165.922C172.562 168.068 171.736 170.127 170.265 171.645C168.794 173.163 166.799 174.016 164.719 174.016H86.2812C84.201 174.016 82.2059 173.163 80.7349 171.645C79.2639 170.127 78.4375 168.068 78.4375 165.922V117.359Z" fill="#FFAC00"/>
<path d="M176.484 109.266C176.484 124.28 176.916 124.887 174.916 127.598L167.072 138.403C166.341 139.408 165.394 140.224 164.305 140.786C163.216 141.348 162.015 141.641 160.797 141.641H90.2031C88.9854 141.641 87.7844 141.348 86.6953 140.786C85.6061 140.224 84.6587 139.408 83.9281 138.403C75.1823 126.263 74.5156 126.262 74.5156 122.742V109.266C74.5156 107.119 75.342 105.06 76.813 103.542C78.284 102.025 80.2791 101.172 82.3594 101.172H168.641C170.721 101.172 172.716 102.025 174.187 103.542C175.658 105.06 176.484 107.119 176.484 109.266Z" fill="#EA9706"/>
<path d="M149.031 149.734C147.991 149.734 146.994 149.308 146.258 148.549C145.523 147.79 145.109 146.761 145.109 145.688V137.594C145.109 136.52 145.523 135.491 146.258 134.732C146.994 133.973 147.991 133.547 149.031 133.547C150.071 133.547 151.069 133.973 151.804 134.732C152.54 135.491 152.953 136.52 152.953 137.594V145.688C152.953 146.761 152.54 147.79 151.804 148.549C151.069 149.308 150.071 149.734 149.031 149.734Z" fill="#F3F3F3"/>
<path d="M101.969 149.734C100.929 149.734 99.9311 149.308 99.1956 148.549C98.4601 147.79 98.0469 146.761 98.0469 145.688V137.594C98.0469 136.52 98.4601 135.491 99.1956 134.732C99.9311 133.973 100.929 133.547 101.969 133.547C103.009 133.547 104.006 133.973 104.742 134.732C105.477 135.491 105.891 136.52 105.891 137.594V145.688C105.891 146.761 105.477 147.79 104.742 148.549C104.006 149.308 103.009 149.734 101.969 149.734Z" fill="#F3F3F3"/>
</svg>
