<?xml version="1.0" encoding="UTF-8" standalone="no"?>
<svg
   version="1.0"
   x="0"
   y="0"
   width="1250"
   height="1250"
   viewBox="73.272051 59.799601 103.88328 103.88328"
   preserveAspectRatio="xMidYMid"
   color-interpolation-filters="sRGB"
   id="svg65"
   sodipodi:docname="WebZen Icon.svg"
   inkscape:version="1.3.2 (091e20e, 2023-11-25, custom)"
   inkscape:export-filename="..\web site versions\favicon.ico"
   inkscape:export-xdpi="3.6863999"
   inkscape:export-ydpi="3.6863999"
   xmlns:inkscape="http://www.inkscape.org/namespaces/inkscape"
   xmlns:sodipodi="http://sodipodi.sourceforge.net/DTD/sodipodi-0.dtd"
   xmlns:xlink="http://www.w3.org/1999/xlink"
   xmlns="http://www.w3.org/2000/svg"
   xmlns:svg="http://www.w3.org/2000/svg">
  <defs
     id="defs65">
    <defs
       id="defs26">
      <linearGradient
         id="92"
         x1="0"
         y1="0"
         x2="1"
         y2="0">
        <stop
           offset="0%"
           stop-color="#fa71cd"
           id="stop1" />
        <stop
           offset="100%"
           stop-color="#9b59b6"
           id="stop2" />
      </linearGradient>
      <linearGradient
         id="93"
         x1="0"
         y1="0"
         x2="1"
         y2="0">
        <stop
           offset="0%"
           stop-color="#f9d423"
           id="stop3" />
        <stop
           offset="100%"
           stop-color="#f83600"
           id="stop4" />
      </linearGradient>
      <linearGradient
         id="94"
         x1="0"
         y1="0"
         x2="1"
         y2="0">
        <stop
           offset="0%"
           stop-color="#0064d2"
           id="stop5" />
        <stop
           offset="100%"
           stop-color="#1cb0f6"
           id="stop6" />
      </linearGradient>
      <linearGradient
         id="95"
         x1="0"
         y1="0"
         x2="1"
         y2="0">
        <stop
           offset="0%"
           stop-color="#f00978"
           id="stop7" />
        <stop
           offset="100%"
           stop-color="#3f51b1"
           id="stop8" />
      </linearGradient>
      <linearGradient
         id="96"
         x1="0"
         y1="0"
         x2="1"
         y2="0">
        <stop
           offset="0%"
           stop-color="#7873f5"
           id="stop9" />
        <stop
           offset="100%"
           stop-color="#ec77ab"
           id="stop10" />
      </linearGradient>
      <linearGradient
         id="97"
         x1="0"
         y1="0"
         x2="1"
         y2="0">
        <stop
           offset="0%"
           stop-color="#f9d423"
           id="stop11" />
        <stop
           offset="100%"
           stop-color="#e14fad"
           id="stop12" />
      </linearGradient>
      <linearGradient
         id="98"
         x1="0"
         y1="0"
         x2="1"
         y2="0">
        <stop
           offset="0%"
           stop-color="#009efd"
           id="stop13" />
        <stop
           offset="100%"
           stop-color="#2af598"
           id="stop14" />
      </linearGradient>
      <linearGradient
         id="99"
         x1="0"
         y1="0"
         x2="1"
         y2="0">
        <stop
           offset="0%"
           stop-color="#ffcc00"
           id="stop15" />
        <stop
           offset="100%"
           stop-color="#00b140"
           id="stop16" />
      </linearGradient>
      <linearGradient
         id="100"
         x1="0"
         y1="0"
         x2="1"
         y2="0">
        <stop
           offset="0%"
           stop-color="#d51007"
           id="stop17" />
        <stop
           offset="100%"
           stop-color="#ff8177"
           id="stop18" />
      </linearGradient>
      <linearGradient
         id="102"
         x1="0"
         y1="0"
         x2="1"
         y2="0">
        <stop
           offset="0%"
           stop-color="#a2b6df"
           id="stop19" />
        <stop
           offset="100%"
           stop-color="#0c3483"
           id="stop20" />
      </linearGradient>
      <linearGradient
         id="103"
         x1="0"
         y1="0"
         x2="1"
         y2="0">
        <stop
           offset="0%"
           stop-color="#7ac5d8"
           id="stop21" />
        <stop
           offset="100%"
           stop-color="#eea2a2"
           id="stop22" />
      </linearGradient>
      <linearGradient
         id="104"
         x1="0"
         y1="0"
         x2="1"
         y2="0">
        <stop
           offset="0%"
           stop-color="#00ecbc"
           id="stop23" />
        <stop
           offset="100%"
           stop-color="#007adf"
           id="stop24" />
      </linearGradient>
      <linearGradient
         id="105"
         x1="0"
         y1="0"
         x2="1"
         y2="0">
        <stop
           offset="0%"
           stop-color="#b88746"
           id="stop25" />
        <stop
           offset="100%"
           stop-color="#fdf5a6"
           id="stop26" />
      </linearGradient>
    </defs>
    <defs
       v-gra="od"
       id="defs57" />
    <defs
       v-gra="id"
       id="defs59">
      <filter
         id="917fbcf2-f33a-46d1-880f-e1ad5a534fbb"
         filterUnits="userSpaceOnUse">
        <feColorMatrix
           type="matrix"
           values="0 0 0 0 0.99609375  0 0 0 0 0.99609375  0 0 0 0 0.99609375  0 0 0 1 0"
           id="feColorMatrix57" />
      </filter>
      <linearGradient
         x1="0"
         y1="120.87011"
         x2="0"
         y2="0"
         id="4lCRo9H0YgxJw8IeF0FI2"
         gradientTransform="matrix(0.9851162,0,0,1.0788505,153.65685,59.799599)"
         gradientUnits="userSpaceOnUse">
        <stop
           offset="0%"
           stop-color="#09f524"
           id="stop57" />
        <stop
           offset="50%"
           stop-color="#2ec0c6"
           id="stop58" />
        <stop
           offset="100%"
           stop-color="#06fff7"
           id="stop59" />
      </linearGradient>
      <filter
         id="42443b3f1de60f6b6fd3b6a9844b4764"
         filterUnits="objectBoundingBox">
        <feColorMatrix
           type="matrix"
           values="0 0 0 0 0.99609375  0 0 0 0 0.99609375  0 0 0 0 0.99609375  0 0 0 1 0"
           id="feColorMatrix59" />
      </filter>
    </defs>
    <mask
       id="mask184">
      <g
         id="g203"
         transform="matrix(1.1501519,0,0,1.1501519,-46.913741,0.00307598)">
        <g
           id="g202"
           transform="matrix(1.1501519,0,0,1.1501519,-46.913741,0.00307598)">
          <g
             id="g201">
            <g
               id="g200">
              <g
                 fill="#ffffff"
                 id="g189"
                 transform="translate(161.2725,67.755054)">
                <g
                   id="g188">
                  <rect
                     fill-opacity="1"
                     stroke-width="2"
                     x="0"
                     y="0"
                     width="103.5"
                     height="114.48988"
                     class="image-rect"
                     id="rect184" />
                  <svg
                     x="0"
                     y="0"
                     width="103.5"
                     height="114.48988"
                     filtersec="colorsb978988562"
                     class="image-svg-svg primary"
                     style="overflow:visible"
                     version="1.1"
                     id="svg188">
                    <svg
                       viewBox="-0.0034506619 0.0030755417 135.584 149.98071"
                       version="1.1"
                       id="svg187"
                       width="100%"
                       height="100%">
                      <path
                         d="m 104.25,22.18 c 2.06,0.69 4.16,1.29 6.18,2.09 a 69.41,69.41 0 0 1 22.85,14.65 6.87,6.87 0 0 1 1.72,3.71 c 1.92,11.77 -1,22.51 -7.61,32.22 -9.13,13.38 -21.9,21.39 -37.73,24.43 a 91,91 0 0 1 -11.1,1 14,14 0 0 1 -2.62,-0.33 V 99.58 C 77.2,99.03 78.46,98.51 79.7,97.93 93.26,91.6 102.15,81.07 106.77,67 c 4.67,-14.27 3.57,-28.38 -2,-42.23 l -0.87,-2.16 z"
                         id="path184" />
                      <path
                         d="m 40.43,16.92 c 1.41,-1.25 2.79,-2.55 4.25,-3.75 A 72.36,72.36 0 0 1 68.75,0.3 a 6.43,6.43 0 0 1 4.41,0.2 41.48,41.48 0 0 1 19.4,14.79 c 9.48,12.94 12.15,27.48 9.8,43.12 a 52,52 0 0 1 -7.56,20.21 4.89,4.89 0 0 1 -1.56,1.59 12.18,12.18 0 0 1 0,-1.48 C 95.76,58.68 88.32,42.78 72.9,30.34 63.9,23.08 53.41,19.21 42.01,17.66 41.54,17.6 41.07,17.5 40.6,17.43 Z m 2,52.8 c -0.11,1.07 -0.21,2.13 -0.33,3.2 -1.43,12.1 1.48,23.16 8.07,33.32 A 54.3,54.3 0 0 0 63,120 62.47,62.47 0 0 0 92.65,132.2 c 0.82,0.12 1.63,0.27 2.44,0.4 l 0.15,0.47 c -1.69,1.47 -3.34,3 -5.08,4.39 A 72.74,72.74 0 0 1 66.33,149.8 6.38,6.38 0 0 1 61.82,149.24 42.27,42.27 0 0 1 38.9,128.15 c -9.12,-18.22 -8.86,-36.52 0.56,-54.62 0.72,-1.39 1.69,-2.65 2.54,-4 z"
                         id="path185" />
                      <path
                         d="M 4,70.13 A 59.17,59.17 0 0 1 1.87,56.32 71.57,71.57 0 0 1 3.87,36 a 3.85,3.85 0 0 1 1,-1.78 37.51,37.51 0 0 1 18.22,-9.54 c 14.38,-3.27 27.77,-0.45 40.31,7 a 55.11,55.11 0 0 1 20.66,21.01 c 0.39,0.7 0.71,1.44 1,2.17 a 3.1,3.1 0 0 1 0.08,0.78 6,6 0 0 1 -1,-0.52 C 66.13,41.44 46.94,40.74 27,50.36 18.2,54.58 11.15,61 5.25,68.67 4.92,69.09 4.56,69.48 4,70.13 Z m 46.59,24.25 c 1.76,1.23 3.47,2.54 5.28,3.69 a 48.56,48.56 0 0 0 30.93,7.72 c 17.77,-1.49 31.81,-9.9 42.87,-23.66 0.5,-0.62 1,-1.23 1.72,-2.07 a 9.37,9.37 0 0 1 0.7,1.57 67.4,67.4 0 0 1 1.46,20.71 c -0.33,3.4 -1,6.77 -1.43,10.16 a 6.94,6.94 0 0 1 -2.8,4.62 c -9.42,7.57 -20.3,10.4 -32.1,9.34 C 79,124.82 64.55,116.2 53.93,101.29 a 74.89,74.89 0 0 1 -3.81,-6.57 z"
                         id="path186" />
                      <path
                         d="m 59.56,50.44 c -1.37,0.61 -2.75,1.18 -4.1,1.83 C 42.56,58.41 34,68.42 29.19,81.78 a 58,58 0 0 0 -2.74,27.4 64.67,64.67 0 0 0 4.67,17 c 0.15,0.36 0.26,0.73 0.49,1.38 A 8.78,8.78 0 0 1 30,127.37 69.7,69.7 0 0 1 5.89,114.24 c -1,-0.8 -1.83,-1.76 -2.86,-2.45 -1.79,-1.19 -2.27,-3 -2.56,-4.9 C -1.22,95.3 1.68,84.76 8.12,75.2 16.34,63 27.88,55.33 42,51.45 a 50.64,50.64 0 0 1 16.31,-1.62 10.9,10.9 0 0 1 1.27,0.23 z"
                         id="path187" />
                    </svg>
                  </svg>
                </g>
              </g>
              <g
                 transform="translate(75.227502,105.06587)"
                 id="g190">
                <rect
                   fill="#000000"
                   fill-opacity="1"
                   x="-3.5"
                   y="-3.5"
                   width="154.59"
                   height="36.849998"
                   id="rect189" />
                <rect
                   fill="#000000"
                   fill-opacity="1"
                   x="-3.5"
                   y="-3.5"
                   transform="translate(9.6090576,36.85)"
                   width="79.361801"
                   height="17.017"
                   id="rect190" />
              </g>
              <g
                 transform="translate(75.227502,105.06587)"
                 fill="#000000"
                 id="g199">
                <g
                   fill-rule=""
                   class="tp-name"
                   id="g195">
                  <g
                     id="g194">
                    <g
                       id="g191">
                      <path
                         d="M 11.17,-2.38 2.58,-27.82 H 0.32 l 9.74,27.9 h 2.3 l 4.45,-13.12 3.5,-10.93 3.5,11.01 4.41,13.04 h 2.31 l 9.81,-27.9 h -2.3 l -8.63,25.44 -8.5,-25.44 h -1.2 z m 38.12,2.66 c 3.14,0 6.56,-1.27 8.46,-3.78 l -1.39,-1.11 c -1.47,1.95 -4.49,2.98 -7.07,2.98 -4.06,0 -7.59,-2.66 -7.99,-7.27 h 17.69 c 0.75,-7.67 -4.18,-11.05 -9.7,-11.05 -5.53,0 -9.98,4.25 -9.98,10.13 0,6.24 4.45,10.1 9.98,10.1 z M 41.3,-10.61 c 0.43,-4.81 3.93,-7.55 7.99,-7.55 4.73,0 7.91,2.7 7.95,7.55 z m 32.71,-7.48 c 4.41,0 8.03,2.75 8.03,8.27 0,5.45 -3.62,8.23 -8.03,8.23 -4.61,0 -8.03,-3.38 -8.03,-8.27 0,-4.89 3.5,-8.23 8.03,-8.23 z m -9.98,-9.73 V 0 h 1.91 v -4.33 c 1.63,2.98 4.85,4.65 8.19,4.65 5.48,0 9.82,-3.62 9.82,-10.14 0,-6.48 -4.38,-10.13 -9.86,-10.13 -3.38,0 -6.56,1.43 -8.15,4.61 v -12.48 z"
                         transform="translate(-0.32000002,28.34)"
                         id="path190" />
                    </g>
                    <g
                       transform="translate(86.629997)"
                       id="g193">
                      <g
                         id="g192">
                        <path
                           d="m 20.94,-28.34 v 0 q -0.31,1.15 -0.99,2.71 -0.68,1.56 -1.56,3.42 -0.88,1.85 -1.89,3.91 -1.01,2.06 -1.98,4.16 -0.97,2.11 -1.82,4.2 -0.84,2.1 -1.4,4.02 v 0 q 1.22,-0.25 2.42,-0.58 1.2,-0.33 2.36,-0.8 1.15,-0.46 2.26,-1.12 1.11,-0.66 2.14,-1.59 v 0 q -0.12,1.02 -0.19,2.02 -0.07,1 -0.07,1.99 v 0 q 0,1.61 0.17,3.21 0.16,1.61 0.51,3.18 v 0 q -2.42,-0.35 -5.02,-0.53 -2.6,-0.17 -5.26,-0.17 v 0 q -2.72,0 -5.39,0.17 -2.67,0.18 -5.19,0.53 v 0 q 2.44,-5.98 5.13,-11.4 2.69,-5.43 5.68,-10.38 v 0 q -2.43,0.12 -4.92,0.9 -2.49,0.77 -4.86,2.09 v 0 q 0.15,-1.09 0.24,-2.12 0.09,-1.04 0.09,-2.05 v 0 q 0,-1.42 -0.17,-2.79 -0.16,-1.36 -0.55,-2.7 v 0 q 2.1,0.23 4.33,0.36 2.23,0.12 4.54,0.12 v 0 q 2.93,0 5.81,-0.2 2.88,-0.21 5.58,-0.56 z m 18.21,10.29 v 0 q 0,1.46 -0.42,2.83 -0.42,1.38 -1.47,2.45 -1.04,1.07 -2.82,1.71 -1.78,0.64 -4.51,0.64 v 0 q 0.07,0.95 0.39,1.59 0.33,0.64 0.77,1.03 0.45,0.39 0.95,0.58 0.51,0.19 0.93,0.27 0.43,0.08 0.72,0.08 0.29,0 0.29,0 v 0 q 1.21,-0.14 2.16,-0.62 v 0 q 0.41,-0.2 0.79,-0.5 0.39,-0.3 0.71,-0.71 0.32,-0.42 0.53,-0.96 0.2,-0.53 0.24,-1.23 v 0 q 0.5,1.26 0.71,2.36 0.2,1.1 0.2,2.05 v 0 q 0,1.74 -0.63,3.21 -0.63,1.47 -1.74,2.53 -1.1,1.07 -2.63,1.66 -1.52,0.59 -3.31,0.59 v 0 q -1.74,0 -3.36,-0.6 Q 26.03,0.31 24.77,-1 23.52,-2.31 22.78,-4.41 22.03,-6.5 22.03,-9.49 v 0 q 0,-3.24 0.93,-5.75 0.93,-2.5 2.5,-4.2 1.58,-1.7 3.64,-2.58 2.07,-0.88 4.34,-0.88 v 0 q 1.13,0 2.16,0.25 1.04,0.25 1.83,0.84 0.78,0.58 1.25,1.5 0.47,0.92 0.47,2.26 z m -9.3,4.43 v 0 q 0.54,-0.02 1.26,-0.23 0.72,-0.2 1.36,-0.57 0.64,-0.37 1.08,-0.91 0.43,-0.55 0.43,-1.24 v 0 q 0,-0.45 -0.31,-0.72 -0.31,-0.27 -0.79,-0.27 v 0 q -0.68,0 -1.22,0.38 -0.53,0.39 -0.91,0.97 -0.38,0.59 -0.61,1.29 -0.23,0.69 -0.29,1.3 z M 61,0.39 v 0 Q 60.4,0.29 59.68,0.26 58.96,0.23 58.19,0.23 v 0 q -0.94,0 -1.9,0.05 -0.96,0.05 -1.87,0.13 -0.91,0.08 -1.73,0.17 -0.81,0.1 -1.41,0.18 v 0 q 0.83,-2.82 1.29,-6.02 0.45,-3.2 0.45,-7.1 v 0 q 0,-0.29 -0.01,-0.78 -0.01,-0.48 -0.05,-1.05 -0.03,-0.56 -0.12,-1.13 -0.09,-0.58 -0.25,-1.04 -0.17,-0.47 -0.42,-0.76 -0.25,-0.29 -0.62,-0.29 v 0 q -0.55,0 -1.06,0.39 -0.51,0.39 -0.91,1.03 -0.4,0.64 -0.64,1.47 -0.25,0.84 -0.25,1.73 v 0 q 0,1.61 0.08,3.27 0.08,1.66 0.25,3.29 0.18,1.63 0.45,3.19 0.27,1.56 0.68,2.96 v 0 Q 49.82,-0.1 49.37,-0.14 v 0 q -0.38,-0.02 -0.91,-0.03 -0.52,-0.02 -1.2,-0.02 v 0 q -1.26,0 -2.91,0.1 -1.65,0.11 -3.57,0.4 v 0 q 0.23,-1.09 0.4,-2.66 0.18,-1.57 0.29,-3.41 0.12,-1.85 0.19,-3.86 0.07,-2.01 0.07,-3.97 v 0 q 0,-1.45 -0.04,-2.85 -0.04,-1.4 -0.11,-2.64 -0.07,-1.24 -0.18,-2.29 -0.12,-1.05 -0.27,-1.8 v 0 q 1.57,0.27 2.91,0.38 1.34,0.1 2.42,0.1 v 0 q 0.7,0 1.25,-0.03 0.56,-0.03 0.95,-0.06 v 0 q 0.46,-0.06 0.81,-0.12 v 0 q -0.12,0.6 -0.22,1.28 -0.11,0.68 -0.21,1.47 v 0 q 0.64,-0.81 1.36,-1.42 0.72,-0.61 1.45,-1.02 0.73,-0.41 1.44,-0.61 0.72,-0.21 1.36,-0.21 v 0 q 1.4,0 2.42,0.58 1.02,0.57 1.69,1.79 0.67,1.22 1,3.13 0.33,1.9 0.33,4.56 v 0 q 0,1.82 0.01,3.7 0.01,1.89 0.08,3.69 0.08,1.81 0.28,3.43 0.19,1.62 0.54,2.92 z"
                           transform="translate(-0.04,28.34)"
                           id="path191" />
                      </g>
                    </g>
                  </g>
                </g>
                <g
                   fill-rule=""
                   class="tp-slogan"
                   transform="translate(9.6140976,36.85)"
                   fill="#ffffff"
                   id="g198">
                  <g
                     id="g197">
                    <g
                       transform="scale(1.26)"
                       id="g196">
                      <path
                         d="m 4.08,-7.15 c 2.56,0 2.56,3.95 0,3.95 H 1.3 v -3.95 z m 0,4.49 c 3.34,0 3.34,-5.04 0,-5.04 -1.12,0 -2.25,0 -3.38,0 V 0 h 0.6 v -2.66 z m 7.25,-0.29 c 1.68,0 2.51,-1.1 2.5,-2.35 -0.01,-1.2 -0.86,-2.4 -2.53,-2.4 -1.14,0 -2.26,0 -3.39,0 V 0 H 8.5 v -2.92 h 2.1 L 13.27,0 h 0.78 z M 8.5,-7.15 h 2.8 c 1.27,0 1.89,0.94 1.88,1.84 -0.01,1.08 -0.61,1.83 -1.95,1.83 H 8.5 Z m 10.09,-0.67 c -2.6,0 -3.88,1.89 -3.88,3.96 0,2.03 1.29,3.99 3.88,3.99 2.58,0 3.87,-1.94 3.88,-3.97 0.01,-2.08 -1.28,-3.98 -3.88,-3.98 z m 0,0.55 c 2.21,0 3.31,1.64 3.31,3.42 0,1.74 -1.11,3.43 -3.31,3.43 -2.19,0 -3.29,-1.69 -3.3,-3.43 -0.01,-1.82 1.09,-3.42 3.3,-3.42 z m 10.48,4.37 c 0,1.59 -1.04,2.47 -2.46,2.47 -1.42,0 -2.49,-1.01 -2.49,-2.47 h -0.55 c 0,1.79 1.29,3.02 3.04,3.02 1.75,0 3.05,-1.13 3.05,-3.02 v -4.8 h -3.53 v 0.52 h 2.94 z m 2.86,-4.24 h 4.73 V -7.7 H 31.35 V 0 h 5.45 v -0.57 h -4.87 v -3.04 h 4.51 v -0.54 h -4.51 z m 12.14,5.7 c -0.66,0.65 -1.54,0.98 -2.41,0.98 -2.23,0 -3.37,-1.56 -3.39,-3.37 -0.01,-1.85 1.14,-3.43 3.39,-3.43 0.87,0 1.73,0.32 2.39,0.98 l 0.41,-0.35 c -0.77,-0.77 -1.79,-1.16 -2.8,-1.16 -2.64,0 -3.99,1.93 -3.96,3.98 0.01,2.08 1.36,3.9 3.96,3.9 1.01,0 2.03,-0.39 2.8,-1.16 z M 47.93,0 h 0.59 v -7.16 h 2.78 v -0.53 h -6.16 v 0.53 h 2.79 z m 9.97,-6.5 c -0.75,-1.13 -1.71,-1.31 -2.81,-1.31 -1.27,0 -2.96,0.51 -2.93,2.13 0,1.42 1.44,1.71 2.85,1.98 1.27,0.25 2.54,0.5 2.53,1.65 0,1.37 -1.51,1.63 -2.45,1.63 -0.95,0 -2.16,-0.46 -2.63,-1.39 l -0.53,0.26 c 0.59,1.18 1.96,1.67 3.16,1.67 1.29,0 3.03,-0.42 3.04,-2.15 0,-1.67 -1.54,-1.93 -3.02,-2.22 -1.3,-0.24 -2.35,-0.47 -2.35,-1.45 0,-1.23 1.43,-1.56 2.33,-1.56 0.87,0.01 1.77,0.14 2.33,1.05 z"
                         transform="translate(-0.704,7.821)"
                         id="path195" />
                    </g>
                  </g>
                </g>
              </g>
            </g>
          </g>
        </g>
      </g>
    </mask>
    <mask
       id="mask203">
      <g
         id="g222"
         transform="matrix(1.1501519,0,0,1.1501519,-46.913741,0.00307598)">
        <g
           id="g221"
           transform="matrix(1.1501519,0,0,1.1501519,-46.913741,0.00307598)">
          <g
             id="g220">
            <g
               id="g219">
              <g
                 fill="#ffffff"
                 id="g208"
                 transform="translate(161.2725,67.755054)">
                <g
                   id="g207">
                  <rect
                     fill-opacity="1"
                     stroke-width="2"
                     x="0"
                     y="0"
                     width="103.5"
                     height="114.48988"
                     class="image-rect"
                     id="rect203" />
                  <svg
                     x="0"
                     y="0"
                     width="103.5"
                     height="114.48988"
                     filtersec="colorsb978988562"
                     class="image-svg-svg primary"
                     style="overflow:visible"
                     version="1.1"
                     id="svg207">
                    <svg
                       viewBox="-0.0034506619 0.0030755417 135.584 149.98071"
                       version="1.1"
                       id="svg206"
                       width="100%"
                       height="100%">
                      <path
                         d="m 104.25,22.18 c 2.06,0.69 4.16,1.29 6.18,2.09 a 69.41,69.41 0 0 1 22.85,14.65 6.87,6.87 0 0 1 1.72,3.71 c 1.92,11.77 -1,22.51 -7.61,32.22 -9.13,13.38 -21.9,21.39 -37.73,24.43 a 91,91 0 0 1 -11.1,1 14,14 0 0 1 -2.62,-0.33 V 99.58 C 77.2,99.03 78.46,98.51 79.7,97.93 93.26,91.6 102.15,81.07 106.77,67 c 4.67,-14.27 3.57,-28.38 -2,-42.23 l -0.87,-2.16 z"
                         id="path203" />
                      <path
                         d="m 40.43,16.92 c 1.41,-1.25 2.79,-2.55 4.25,-3.75 A 72.36,72.36 0 0 1 68.75,0.3 a 6.43,6.43 0 0 1 4.41,0.2 41.48,41.48 0 0 1 19.4,14.79 c 9.48,12.94 12.15,27.48 9.8,43.12 a 52,52 0 0 1 -7.56,20.21 4.89,4.89 0 0 1 -1.56,1.59 12.18,12.18 0 0 1 0,-1.48 C 95.76,58.68 88.32,42.78 72.9,30.34 63.9,23.08 53.41,19.21 42.01,17.66 41.54,17.6 41.07,17.5 40.6,17.43 Z m 2,52.8 c -0.11,1.07 -0.21,2.13 -0.33,3.2 -1.43,12.1 1.48,23.16 8.07,33.32 A 54.3,54.3 0 0 0 63,120 62.47,62.47 0 0 0 92.65,132.2 c 0.82,0.12 1.63,0.27 2.44,0.4 l 0.15,0.47 c -1.69,1.47 -3.34,3 -5.08,4.39 A 72.74,72.74 0 0 1 66.33,149.8 6.38,6.38 0 0 1 61.82,149.24 42.27,42.27 0 0 1 38.9,128.15 c -9.12,-18.22 -8.86,-36.52 0.56,-54.62 0.72,-1.39 1.69,-2.65 2.54,-4 z"
                         id="path204" />
                      <path
                         d="M 4,70.13 A 59.17,59.17 0 0 1 1.87,56.32 71.57,71.57 0 0 1 3.87,36 a 3.85,3.85 0 0 1 1,-1.78 37.51,37.51 0 0 1 18.22,-9.54 c 14.38,-3.27 27.77,-0.45 40.31,7 a 55.11,55.11 0 0 1 20.66,21.01 c 0.39,0.7 0.71,1.44 1,2.17 a 3.1,3.1 0 0 1 0.08,0.78 6,6 0 0 1 -1,-0.52 C 66.13,41.44 46.94,40.74 27,50.36 18.2,54.58 11.15,61 5.25,68.67 4.92,69.09 4.56,69.48 4,70.13 Z m 46.59,24.25 c 1.76,1.23 3.47,2.54 5.28,3.69 a 48.56,48.56 0 0 0 30.93,7.72 c 17.77,-1.49 31.81,-9.9 42.87,-23.66 0.5,-0.62 1,-1.23 1.72,-2.07 a 9.37,9.37 0 0 1 0.7,1.57 67.4,67.4 0 0 1 1.46,20.71 c -0.33,3.4 -1,6.77 -1.43,10.16 a 6.94,6.94 0 0 1 -2.8,4.62 c -9.42,7.57 -20.3,10.4 -32.1,9.34 C 79,124.82 64.55,116.2 53.93,101.29 a 74.89,74.89 0 0 1 -3.81,-6.57 z"
                         id="path205" />
                      <path
                         d="m 59.56,50.44 c -1.37,0.61 -2.75,1.18 -4.1,1.83 C 42.56,58.41 34,68.42 29.19,81.78 a 58,58 0 0 0 -2.74,27.4 64.67,64.67 0 0 0 4.67,17 c 0.15,0.36 0.26,0.73 0.49,1.38 A 8.78,8.78 0 0 1 30,127.37 69.7,69.7 0 0 1 5.89,114.24 c -1,-0.8 -1.83,-1.76 -2.86,-2.45 -1.79,-1.19 -2.27,-3 -2.56,-4.9 C -1.22,95.3 1.68,84.76 8.12,75.2 16.34,63 27.88,55.33 42,51.45 a 50.64,50.64 0 0 1 16.31,-1.62 10.9,10.9 0 0 1 1.27,0.23 z"
                         id="path206" />
                    </svg>
                  </svg>
                </g>
              </g>
              <g
                 transform="translate(75.227502,105.06587)"
                 id="g209">
                <rect
                   fill="#000000"
                   fill-opacity="1"
                   x="-3.5"
                   y="-3.5"
                   width="154.59"
                   height="36.849998"
                   id="rect208" />
                <rect
                   fill="#000000"
                   fill-opacity="1"
                   x="-3.5"
                   y="-3.5"
                   transform="translate(9.6090576,36.85)"
                   width="79.361801"
                   height="17.017"
                   id="rect209" />
              </g>
              <g
                 transform="translate(75.227502,105.06587)"
                 fill="#000000"
                 id="g218">
                <g
                   fill-rule=""
                   class="tp-name"
                   id="g214">
                  <g
                     id="g213">
                    <g
                       id="g210">
                      <path
                         d="M 11.17,-2.38 2.58,-27.82 H 0.32 l 9.74,27.9 h 2.3 l 4.45,-13.12 3.5,-10.93 3.5,11.01 4.41,13.04 h 2.31 l 9.81,-27.9 h -2.3 l -8.63,25.44 -8.5,-25.44 h -1.2 z m 38.12,2.66 c 3.14,0 6.56,-1.27 8.46,-3.78 l -1.39,-1.11 c -1.47,1.95 -4.49,2.98 -7.07,2.98 -4.06,0 -7.59,-2.66 -7.99,-7.27 h 17.69 c 0.75,-7.67 -4.18,-11.05 -9.7,-11.05 -5.53,0 -9.98,4.25 -9.98,10.13 0,6.24 4.45,10.1 9.98,10.1 z M 41.3,-10.61 c 0.43,-4.81 3.93,-7.55 7.99,-7.55 4.73,0 7.91,2.7 7.95,7.55 z m 32.71,-7.48 c 4.41,0 8.03,2.75 8.03,8.27 0,5.45 -3.62,8.23 -8.03,8.23 -4.61,0 -8.03,-3.38 -8.03,-8.27 0,-4.89 3.5,-8.23 8.03,-8.23 z m -9.98,-9.73 V 0 h 1.91 v -4.33 c 1.63,2.98 4.85,4.65 8.19,4.65 5.48,0 9.82,-3.62 9.82,-10.14 0,-6.48 -4.38,-10.13 -9.86,-10.13 -3.38,0 -6.56,1.43 -8.15,4.61 v -12.48 z"
                         transform="translate(-0.32000002,28.34)"
                         id="path209" />
                    </g>
                    <g
                       transform="translate(86.629997)"
                       id="g212">
                      <g
                         id="g211">
                        <path
                           d="m 20.94,-28.34 v 0 q -0.31,1.15 -0.99,2.71 -0.68,1.56 -1.56,3.42 -0.88,1.85 -1.89,3.91 -1.01,2.06 -1.98,4.16 -0.97,2.11 -1.82,4.2 -0.84,2.1 -1.4,4.02 v 0 q 1.22,-0.25 2.42,-0.58 1.2,-0.33 2.36,-0.8 1.15,-0.46 2.26,-1.12 1.11,-0.66 2.14,-1.59 v 0 q -0.12,1.02 -0.19,2.02 -0.07,1 -0.07,1.99 v 0 q 0,1.61 0.17,3.21 0.16,1.61 0.51,3.18 v 0 q -2.42,-0.35 -5.02,-0.53 -2.6,-0.17 -5.26,-0.17 v 0 q -2.72,0 -5.39,0.17 -2.67,0.18 -5.19,0.53 v 0 q 2.44,-5.98 5.13,-11.4 2.69,-5.43 5.68,-10.38 v 0 q -2.43,0.12 -4.92,0.9 -2.49,0.77 -4.86,2.09 v 0 q 0.15,-1.09 0.24,-2.12 0.09,-1.04 0.09,-2.05 v 0 q 0,-1.42 -0.17,-2.79 -0.16,-1.36 -0.55,-2.7 v 0 q 2.1,0.23 4.33,0.36 2.23,0.12 4.54,0.12 v 0 q 2.93,0 5.81,-0.2 2.88,-0.21 5.58,-0.56 z m 18.21,10.29 v 0 q 0,1.46 -0.42,2.83 -0.42,1.38 -1.47,2.45 -1.04,1.07 -2.82,1.71 -1.78,0.64 -4.51,0.64 v 0 q 0.07,0.95 0.39,1.59 0.33,0.64 0.77,1.03 0.45,0.39 0.95,0.58 0.51,0.19 0.93,0.27 0.43,0.08 0.72,0.08 0.29,0 0.29,0 v 0 q 1.21,-0.14 2.16,-0.62 v 0 q 0.41,-0.2 0.79,-0.5 0.39,-0.3 0.71,-0.71 0.32,-0.42 0.53,-0.96 0.2,-0.53 0.24,-1.23 v 0 q 0.5,1.26 0.71,2.36 0.2,1.1 0.2,2.05 v 0 q 0,1.74 -0.63,3.21 -0.63,1.47 -1.74,2.53 -1.1,1.07 -2.63,1.66 -1.52,0.59 -3.31,0.59 v 0 q -1.74,0 -3.36,-0.6 Q 26.03,0.31 24.77,-1 23.52,-2.31 22.78,-4.41 22.03,-6.5 22.03,-9.49 v 0 q 0,-3.24 0.93,-5.75 0.93,-2.5 2.5,-4.2 1.58,-1.7 3.64,-2.58 2.07,-0.88 4.34,-0.88 v 0 q 1.13,0 2.16,0.25 1.04,0.25 1.83,0.84 0.78,0.58 1.25,1.5 0.47,0.92 0.47,2.26 z m -9.3,4.43 v 0 q 0.54,-0.02 1.26,-0.23 0.72,-0.2 1.36,-0.57 0.64,-0.37 1.08,-0.91 0.43,-0.55 0.43,-1.24 v 0 q 0,-0.45 -0.31,-0.72 -0.31,-0.27 -0.79,-0.27 v 0 q -0.68,0 -1.22,0.38 -0.53,0.39 -0.91,0.97 -0.38,0.59 -0.61,1.29 -0.23,0.69 -0.29,1.3 z M 61,0.39 v 0 Q 60.4,0.29 59.68,0.26 58.96,0.23 58.19,0.23 v 0 q -0.94,0 -1.9,0.05 -0.96,0.05 -1.87,0.13 -0.91,0.08 -1.73,0.17 -0.81,0.1 -1.41,0.18 v 0 q 0.83,-2.82 1.29,-6.02 0.45,-3.2 0.45,-7.1 v 0 q 0,-0.29 -0.01,-0.78 -0.01,-0.48 -0.05,-1.05 -0.03,-0.56 -0.12,-1.13 -0.09,-0.58 -0.25,-1.04 -0.17,-0.47 -0.42,-0.76 -0.25,-0.29 -0.62,-0.29 v 0 q -0.55,0 -1.06,0.39 -0.51,0.39 -0.91,1.03 -0.4,0.64 -0.64,1.47 -0.25,0.84 -0.25,1.73 v 0 q 0,1.61 0.08,3.27 0.08,1.66 0.25,3.29 0.18,1.63 0.45,3.19 0.27,1.56 0.68,2.96 v 0 Q 49.82,-0.1 49.37,-0.14 v 0 q -0.38,-0.02 -0.91,-0.03 -0.52,-0.02 -1.2,-0.02 v 0 q -1.26,0 -2.91,0.1 -1.65,0.11 -3.57,0.4 v 0 q 0.23,-1.09 0.4,-2.66 0.18,-1.57 0.29,-3.41 0.12,-1.85 0.19,-3.86 0.07,-2.01 0.07,-3.97 v 0 q 0,-1.45 -0.04,-2.85 -0.04,-1.4 -0.11,-2.64 -0.07,-1.24 -0.18,-2.29 -0.12,-1.05 -0.27,-1.8 v 0 q 1.57,0.27 2.91,0.38 1.34,0.1 2.42,0.1 v 0 q 0.7,0 1.25,-0.03 0.56,-0.03 0.95,-0.06 v 0 q 0.46,-0.06 0.81,-0.12 v 0 q -0.12,0.6 -0.22,1.28 -0.11,0.68 -0.21,1.47 v 0 q 0.64,-0.81 1.36,-1.42 0.72,-0.61 1.45,-1.02 0.73,-0.41 1.44,-0.61 0.72,-0.21 1.36,-0.21 v 0 q 1.4,0 2.42,0.58 1.02,0.57 1.69,1.79 0.67,1.22 1,3.13 0.33,1.9 0.33,4.56 v 0 q 0,1.82 0.01,3.7 0.01,1.89 0.08,3.69 0.08,1.81 0.28,3.43 0.19,1.62 0.54,2.92 z"
                           transform="translate(-0.04,28.34)"
                           id="path210" />
                      </g>
                    </g>
                  </g>
                </g>
                <g
                   fill-rule=""
                   class="tp-slogan"
                   transform="translate(9.6140976,36.85)"
                   fill="#ffffff"
                   id="g217">
                  <g
                     id="g216">
                    <g
                       transform="scale(1.26)"
                       id="g215">
                      <path
                         d="m 4.08,-7.15 c 2.56,0 2.56,3.95 0,3.95 H 1.3 v -3.95 z m 0,4.49 c 3.34,0 3.34,-5.04 0,-5.04 -1.12,0 -2.25,0 -3.38,0 V 0 h 0.6 v -2.66 z m 7.25,-0.29 c 1.68,0 2.51,-1.1 2.5,-2.35 -0.01,-1.2 -0.86,-2.4 -2.53,-2.4 -1.14,0 -2.26,0 -3.39,0 V 0 H 8.5 v -2.92 h 2.1 L 13.27,0 h 0.78 z M 8.5,-7.15 h 2.8 c 1.27,0 1.89,0.94 1.88,1.84 -0.01,1.08 -0.61,1.83 -1.95,1.83 H 8.5 Z m 10.09,-0.67 c -2.6,0 -3.88,1.89 -3.88,3.96 0,2.03 1.29,3.99 3.88,3.99 2.58,0 3.87,-1.94 3.88,-3.97 0.01,-2.08 -1.28,-3.98 -3.88,-3.98 z m 0,0.55 c 2.21,0 3.31,1.64 3.31,3.42 0,1.74 -1.11,3.43 -3.31,3.43 -2.19,0 -3.29,-1.69 -3.3,-3.43 -0.01,-1.82 1.09,-3.42 3.3,-3.42 z m 10.48,4.37 c 0,1.59 -1.04,2.47 -2.46,2.47 -1.42,0 -2.49,-1.01 -2.49,-2.47 h -0.55 c 0,1.79 1.29,3.02 3.04,3.02 1.75,0 3.05,-1.13 3.05,-3.02 v -4.8 h -3.53 v 0.52 h 2.94 z m 2.86,-4.24 h 4.73 V -7.7 H 31.35 V 0 h 5.45 v -0.57 h -4.87 v -3.04 h 4.51 v -0.54 h -4.51 z m 12.14,5.7 c -0.66,0.65 -1.54,0.98 -2.41,0.98 -2.23,0 -3.37,-1.56 -3.39,-3.37 -0.01,-1.85 1.14,-3.43 3.39,-3.43 0.87,0 1.73,0.32 2.39,0.98 l 0.41,-0.35 c -0.77,-0.77 -1.79,-1.16 -2.8,-1.16 -2.64,0 -3.99,1.93 -3.96,3.98 0.01,2.08 1.36,3.9 3.96,3.9 1.01,0 2.03,-0.39 2.8,-1.16 z M 47.93,0 h 0.59 v -7.16 h 2.78 v -0.53 h -6.16 v 0.53 h 2.79 z m 9.97,-6.5 c -0.75,-1.13 -1.71,-1.31 -2.81,-1.31 -1.27,0 -2.96,0.51 -2.93,2.13 0,1.42 1.44,1.71 2.85,1.98 1.27,0.25 2.54,0.5 2.53,1.65 0,1.37 -1.51,1.63 -2.45,1.63 -0.95,0 -2.16,-0.46 -2.63,-1.39 l -0.53,0.26 c 0.59,1.18 1.96,1.67 3.16,1.67 1.29,0 3.03,-0.42 3.04,-2.15 0,-1.67 -1.54,-1.93 -3.02,-2.22 -1.3,-0.24 -2.35,-0.47 -2.35,-1.45 0,-1.23 1.43,-1.56 2.33,-1.56 0.87,0.01 1.77,0.14 2.33,1.05 z"
                         transform="translate(-0.704,7.821)"
                         id="path214" />
                    </g>
                  </g>
                </g>
              </g>
            </g>
          </g>
        </g>
      </g>
    </mask>
    <mask
       id="mask222">
      <g
         id="g241"
         transform="matrix(1.1501519,0,0,1.1501519,-46.913741,0.00307598)">
        <g
           id="g240"
           transform="matrix(1.1501519,0,0,1.1501519,-46.913741,0.00307598)">
          <g
             id="g239">
            <g
               id="g238">
              <g
                 fill="#ffffff"
                 id="g227"
                 transform="translate(161.2725,67.755054)">
                <g
                   id="g226">
                  <rect
                     fill-opacity="1"
                     stroke-width="2"
                     x="0"
                     y="0"
                     width="103.5"
                     height="114.48988"
                     class="image-rect"
                     id="rect222" />
                  <svg
                     x="0"
                     y="0"
                     width="103.5"
                     height="114.48988"
                     filtersec="colorsb978988562"
                     class="image-svg-svg primary"
                     style="overflow:visible"
                     version="1.1"
                     id="svg226">
                    <svg
                       viewBox="-0.0034506619 0.0030755417 135.584 149.98071"
                       version="1.1"
                       id="svg225"
                       width="100%"
                       height="100%">
                      <path
                         d="m 104.25,22.18 c 2.06,0.69 4.16,1.29 6.18,2.09 a 69.41,69.41 0 0 1 22.85,14.65 6.87,6.87 0 0 1 1.72,3.71 c 1.92,11.77 -1,22.51 -7.61,32.22 -9.13,13.38 -21.9,21.39 -37.73,24.43 a 91,91 0 0 1 -11.1,1 14,14 0 0 1 -2.62,-0.33 V 99.58 C 77.2,99.03 78.46,98.51 79.7,97.93 93.26,91.6 102.15,81.07 106.77,67 c 4.67,-14.27 3.57,-28.38 -2,-42.23 l -0.87,-2.16 z"
                         id="path222" />
                      <path
                         d="m 40.43,16.92 c 1.41,-1.25 2.79,-2.55 4.25,-3.75 A 72.36,72.36 0 0 1 68.75,0.3 a 6.43,6.43 0 0 1 4.41,0.2 41.48,41.48 0 0 1 19.4,14.79 c 9.48,12.94 12.15,27.48 9.8,43.12 a 52,52 0 0 1 -7.56,20.21 4.89,4.89 0 0 1 -1.56,1.59 12.18,12.18 0 0 1 0,-1.48 C 95.76,58.68 88.32,42.78 72.9,30.34 63.9,23.08 53.41,19.21 42.01,17.66 41.54,17.6 41.07,17.5 40.6,17.43 Z m 2,52.8 c -0.11,1.07 -0.21,2.13 -0.33,3.2 -1.43,12.1 1.48,23.16 8.07,33.32 A 54.3,54.3 0 0 0 63,120 62.47,62.47 0 0 0 92.65,132.2 c 0.82,0.12 1.63,0.27 2.44,0.4 l 0.15,0.47 c -1.69,1.47 -3.34,3 -5.08,4.39 A 72.74,72.74 0 0 1 66.33,149.8 6.38,6.38 0 0 1 61.82,149.24 42.27,42.27 0 0 1 38.9,128.15 c -9.12,-18.22 -8.86,-36.52 0.56,-54.62 0.72,-1.39 1.69,-2.65 2.54,-4 z"
                         id="path223" />
                      <path
                         d="M 4,70.13 A 59.17,59.17 0 0 1 1.87,56.32 71.57,71.57 0 0 1 3.87,36 a 3.85,3.85 0 0 1 1,-1.78 37.51,37.51 0 0 1 18.22,-9.54 c 14.38,-3.27 27.77,-0.45 40.31,7 a 55.11,55.11 0 0 1 20.66,21.01 c 0.39,0.7 0.71,1.44 1,2.17 a 3.1,3.1 0 0 1 0.08,0.78 6,6 0 0 1 -1,-0.52 C 66.13,41.44 46.94,40.74 27,50.36 18.2,54.58 11.15,61 5.25,68.67 4.92,69.09 4.56,69.48 4,70.13 Z m 46.59,24.25 c 1.76,1.23 3.47,2.54 5.28,3.69 a 48.56,48.56 0 0 0 30.93,7.72 c 17.77,-1.49 31.81,-9.9 42.87,-23.66 0.5,-0.62 1,-1.23 1.72,-2.07 a 9.37,9.37 0 0 1 0.7,1.57 67.4,67.4 0 0 1 1.46,20.71 c -0.33,3.4 -1,6.77 -1.43,10.16 a 6.94,6.94 0 0 1 -2.8,4.62 c -9.42,7.57 -20.3,10.4 -32.1,9.34 C 79,124.82 64.55,116.2 53.93,101.29 a 74.89,74.89 0 0 1 -3.81,-6.57 z"
                         id="path224" />
                      <path
                         d="m 59.56,50.44 c -1.37,0.61 -2.75,1.18 -4.1,1.83 C 42.56,58.41 34,68.42 29.19,81.78 a 58,58 0 0 0 -2.74,27.4 64.67,64.67 0 0 0 4.67,17 c 0.15,0.36 0.26,0.73 0.49,1.38 A 8.78,8.78 0 0 1 30,127.37 69.7,69.7 0 0 1 5.89,114.24 c -1,-0.8 -1.83,-1.76 -2.86,-2.45 -1.79,-1.19 -2.27,-3 -2.56,-4.9 C -1.22,95.3 1.68,84.76 8.12,75.2 16.34,63 27.88,55.33 42,51.45 a 50.64,50.64 0 0 1 16.31,-1.62 10.9,10.9 0 0 1 1.27,0.23 z"
                         id="path225" />
                    </svg>
                  </svg>
                </g>
              </g>
              <g
                 transform="translate(75.227502,105.06587)"
                 id="g228">
                <rect
                   fill="#000000"
                   fill-opacity="1"
                   x="-3.5"
                   y="-3.5"
                   width="154.59"
                   height="36.849998"
                   id="rect227" />
                <rect
                   fill="#000000"
                   fill-opacity="1"
                   x="-3.5"
                   y="-3.5"
                   transform="translate(9.6090576,36.85)"
                   width="79.361801"
                   height="17.017"
                   id="rect228" />
              </g>
              <g
                 transform="translate(75.227502,105.06587)"
                 fill="#000000"
                 id="g237">
                <g
                   fill-rule=""
                   class="tp-name"
                   id="g233">
                  <g
                     id="g232">
                    <g
                       id="g229">
                      <path
                         d="M 11.17,-2.38 2.58,-27.82 H 0.32 l 9.74,27.9 h 2.3 l 4.45,-13.12 3.5,-10.93 3.5,11.01 4.41,13.04 h 2.31 l 9.81,-27.9 h -2.3 l -8.63,25.44 -8.5,-25.44 h -1.2 z m 38.12,2.66 c 3.14,0 6.56,-1.27 8.46,-3.78 l -1.39,-1.11 c -1.47,1.95 -4.49,2.98 -7.07,2.98 -4.06,0 -7.59,-2.66 -7.99,-7.27 h 17.69 c 0.75,-7.67 -4.18,-11.05 -9.7,-11.05 -5.53,0 -9.98,4.25 -9.98,10.13 0,6.24 4.45,10.1 9.98,10.1 z M 41.3,-10.61 c 0.43,-4.81 3.93,-7.55 7.99,-7.55 4.73,0 7.91,2.7 7.95,7.55 z m 32.71,-7.48 c 4.41,0 8.03,2.75 8.03,8.27 0,5.45 -3.62,8.23 -8.03,8.23 -4.61,0 -8.03,-3.38 -8.03,-8.27 0,-4.89 3.5,-8.23 8.03,-8.23 z m -9.98,-9.73 V 0 h 1.91 v -4.33 c 1.63,2.98 4.85,4.65 8.19,4.65 5.48,0 9.82,-3.62 9.82,-10.14 0,-6.48 -4.38,-10.13 -9.86,-10.13 -3.38,0 -6.56,1.43 -8.15,4.61 v -12.48 z"
                         transform="translate(-0.32000002,28.34)"
                         id="path228" />
                    </g>
                    <g
                       transform="translate(86.629997)"
                       id="g231">
                      <g
                         id="g230">
                        <path
                           d="m 20.94,-28.34 v 0 q -0.31,1.15 -0.99,2.71 -0.68,1.56 -1.56,3.42 -0.88,1.85 -1.89,3.91 -1.01,2.06 -1.98,4.16 -0.97,2.11 -1.82,4.2 -0.84,2.1 -1.4,4.02 v 0 q 1.22,-0.25 2.42,-0.58 1.2,-0.33 2.36,-0.8 1.15,-0.46 2.26,-1.12 1.11,-0.66 2.14,-1.59 v 0 q -0.12,1.02 -0.19,2.02 -0.07,1 -0.07,1.99 v 0 q 0,1.61 0.17,3.21 0.16,1.61 0.51,3.18 v 0 q -2.42,-0.35 -5.02,-0.53 -2.6,-0.17 -5.26,-0.17 v 0 q -2.72,0 -5.39,0.17 -2.67,0.18 -5.19,0.53 v 0 q 2.44,-5.98 5.13,-11.4 2.69,-5.43 5.68,-10.38 v 0 q -2.43,0.12 -4.92,0.9 -2.49,0.77 -4.86,2.09 v 0 q 0.15,-1.09 0.24,-2.12 0.09,-1.04 0.09,-2.05 v 0 q 0,-1.42 -0.17,-2.79 -0.16,-1.36 -0.55,-2.7 v 0 q 2.1,0.23 4.33,0.36 2.23,0.12 4.54,0.12 v 0 q 2.93,0 5.81,-0.2 2.88,-0.21 5.58,-0.56 z m 18.21,10.29 v 0 q 0,1.46 -0.42,2.83 -0.42,1.38 -1.47,2.45 -1.04,1.07 -2.82,1.71 -1.78,0.64 -4.51,0.64 v 0 q 0.07,0.95 0.39,1.59 0.33,0.64 0.77,1.03 0.45,0.39 0.95,0.58 0.51,0.19 0.93,0.27 0.43,0.08 0.72,0.08 0.29,0 0.29,0 v 0 q 1.21,-0.14 2.16,-0.62 v 0 q 0.41,-0.2 0.79,-0.5 0.39,-0.3 0.71,-0.71 0.32,-0.42 0.53,-0.96 0.2,-0.53 0.24,-1.23 v 0 q 0.5,1.26 0.71,2.36 0.2,1.1 0.2,2.05 v 0 q 0,1.74 -0.63,3.21 -0.63,1.47 -1.74,2.53 -1.1,1.07 -2.63,1.66 -1.52,0.59 -3.31,0.59 v 0 q -1.74,0 -3.36,-0.6 Q 26.03,0.31 24.77,-1 23.52,-2.31 22.78,-4.41 22.03,-6.5 22.03,-9.49 v 0 q 0,-3.24 0.93,-5.75 0.93,-2.5 2.5,-4.2 1.58,-1.7 3.64,-2.58 2.07,-0.88 4.34,-0.88 v 0 q 1.13,0 2.16,0.25 1.04,0.25 1.83,0.84 0.78,0.58 1.25,1.5 0.47,0.92 0.47,2.26 z m -9.3,4.43 v 0 q 0.54,-0.02 1.26,-0.23 0.72,-0.2 1.36,-0.57 0.64,-0.37 1.08,-0.91 0.43,-0.55 0.43,-1.24 v 0 q 0,-0.45 -0.31,-0.72 -0.31,-0.27 -0.79,-0.27 v 0 q -0.68,0 -1.22,0.38 -0.53,0.39 -0.91,0.97 -0.38,0.59 -0.61,1.29 -0.23,0.69 -0.29,1.3 z M 61,0.39 v 0 Q 60.4,0.29 59.68,0.26 58.96,0.23 58.19,0.23 v 0 q -0.94,0 -1.9,0.05 -0.96,0.05 -1.87,0.13 -0.91,0.08 -1.73,0.17 -0.81,0.1 -1.41,0.18 v 0 q 0.83,-2.82 1.29,-6.02 0.45,-3.2 0.45,-7.1 v 0 q 0,-0.29 -0.01,-0.78 -0.01,-0.48 -0.05,-1.05 -0.03,-0.56 -0.12,-1.13 -0.09,-0.58 -0.25,-1.04 -0.17,-0.47 -0.42,-0.76 -0.25,-0.29 -0.62,-0.29 v 0 q -0.55,0 -1.06,0.39 -0.51,0.39 -0.91,1.03 -0.4,0.64 -0.64,1.47 -0.25,0.84 -0.25,1.73 v 0 q 0,1.61 0.08,3.27 0.08,1.66 0.25,3.29 0.18,1.63 0.45,3.19 0.27,1.56 0.68,2.96 v 0 Q 49.82,-0.1 49.37,-0.14 v 0 q -0.38,-0.02 -0.91,-0.03 -0.52,-0.02 -1.2,-0.02 v 0 q -1.26,0 -2.91,0.1 -1.65,0.11 -3.57,0.4 v 0 q 0.23,-1.09 0.4,-2.66 0.18,-1.57 0.29,-3.41 0.12,-1.85 0.19,-3.86 0.07,-2.01 0.07,-3.97 v 0 q 0,-1.45 -0.04,-2.85 -0.04,-1.4 -0.11,-2.64 -0.07,-1.24 -0.18,-2.29 -0.12,-1.05 -0.27,-1.8 v 0 q 1.57,0.27 2.91,0.38 1.34,0.1 2.42,0.1 v 0 q 0.7,0 1.25,-0.03 0.56,-0.03 0.95,-0.06 v 0 q 0.46,-0.06 0.81,-0.12 v 0 q -0.12,0.6 -0.22,1.28 -0.11,0.68 -0.21,1.47 v 0 q 0.64,-0.81 1.36,-1.42 0.72,-0.61 1.45,-1.02 0.73,-0.41 1.44,-0.61 0.72,-0.21 1.36,-0.21 v 0 q 1.4,0 2.42,0.58 1.02,0.57 1.69,1.79 0.67,1.22 1,3.13 0.33,1.9 0.33,4.56 v 0 q 0,1.82 0.01,3.7 0.01,1.89 0.08,3.69 0.08,1.81 0.28,3.43 0.19,1.62 0.54,2.92 z"
                           transform="translate(-0.04,28.34)"
                           id="path229" />
                      </g>
                    </g>
                  </g>
                </g>
                <g
                   fill-rule=""
                   class="tp-slogan"
                   transform="translate(9.6140976,36.85)"
                   fill="#ffffff"
                   id="g236">
                  <g
                     id="g235">
                    <g
                       transform="scale(1.26)"
                       id="g234">
                      <path
                         d="m 4.08,-7.15 c 2.56,0 2.56,3.95 0,3.95 H 1.3 v -3.95 z m 0,4.49 c 3.34,0 3.34,-5.04 0,-5.04 -1.12,0 -2.25,0 -3.38,0 V 0 h 0.6 v -2.66 z m 7.25,-0.29 c 1.68,0 2.51,-1.1 2.5,-2.35 -0.01,-1.2 -0.86,-2.4 -2.53,-2.4 -1.14,0 -2.26,0 -3.39,0 V 0 H 8.5 v -2.92 h 2.1 L 13.27,0 h 0.78 z M 8.5,-7.15 h 2.8 c 1.27,0 1.89,0.94 1.88,1.84 -0.01,1.08 -0.61,1.83 -1.95,1.83 H 8.5 Z m 10.09,-0.67 c -2.6,0 -3.88,1.89 -3.88,3.96 0,2.03 1.29,3.99 3.88,3.99 2.58,0 3.87,-1.94 3.88,-3.97 0.01,-2.08 -1.28,-3.98 -3.88,-3.98 z m 0,0.55 c 2.21,0 3.31,1.64 3.31,3.42 0,1.74 -1.11,3.43 -3.31,3.43 -2.19,0 -3.29,-1.69 -3.3,-3.43 -0.01,-1.82 1.09,-3.42 3.3,-3.42 z m 10.48,4.37 c 0,1.59 -1.04,2.47 -2.46,2.47 -1.42,0 -2.49,-1.01 -2.49,-2.47 h -0.55 c 0,1.79 1.29,3.02 3.04,3.02 1.75,0 3.05,-1.13 3.05,-3.02 v -4.8 h -3.53 v 0.52 h 2.94 z m 2.86,-4.24 h 4.73 V -7.7 H 31.35 V 0 h 5.45 v -0.57 h -4.87 v -3.04 h 4.51 v -0.54 h -4.51 z m 12.14,5.7 c -0.66,0.65 -1.54,0.98 -2.41,0.98 -2.23,0 -3.37,-1.56 -3.39,-3.37 -0.01,-1.85 1.14,-3.43 3.39,-3.43 0.87,0 1.73,0.32 2.39,0.98 l 0.41,-0.35 c -0.77,-0.77 -1.79,-1.16 -2.8,-1.16 -2.64,0 -3.99,1.93 -3.96,3.98 0.01,2.08 1.36,3.9 3.96,3.9 1.01,0 2.03,-0.39 2.8,-1.16 z M 47.93,0 h 0.59 v -7.16 h 2.78 v -0.53 h -6.16 v 0.53 h 2.79 z m 9.97,-6.5 c -0.75,-1.13 -1.71,-1.31 -2.81,-1.31 -1.27,0 -2.96,0.51 -2.93,2.13 0,1.42 1.44,1.71 2.85,1.98 1.27,0.25 2.54,0.5 2.53,1.65 0,1.37 -1.51,1.63 -2.45,1.63 -0.95,0 -2.16,-0.46 -2.63,-1.39 l -0.53,0.26 c 0.59,1.18 1.96,1.67 3.16,1.67 1.29,0 3.03,-0.42 3.04,-2.15 0,-1.67 -1.54,-1.93 -3.02,-2.22 -1.3,-0.24 -2.35,-0.47 -2.35,-1.45 0,-1.23 1.43,-1.56 2.33,-1.56 0.87,0.01 1.77,0.14 2.33,1.05 z"
                         transform="translate(-0.704,7.821)"
                         id="path233" />
                    </g>
                  </g>
                </g>
              </g>
            </g>
          </g>
        </g>
      </g>
    </mask>
    <mask
       id="mask502">
      <g
         id="g519">
        <g
           id="g518">
          <g
             fill="#ffffff"
             id="g507"
             transform="matrix(1.1501519,0,0,1.1501519,138.57413,77.93168)">
            <g
               id="g506">
              <rect
                 fill-opacity="1"
                 stroke-width="2"
                 x="0"
                 y="0"
                 width="103.5"
                 height="114.48988"
                 class="image-rect"
                 id="rect502" />
              <svg
                 x="0"
                 y="0"
                 width="103.5"
                 height="114.48988"
                 filtersec="colorsb978988562"
                 class="image-svg-svg primary"
                 style="overflow:visible"
                 version="1.1"
                 id="svg506">
                <svg
                   viewBox="-0.0034506619 0.0030755417 135.584 149.98071"
                   version="1.1"
                   id="svg505"
                   width="100%"
                   height="100%">
                  <path
                     d="m 104.25,22.18 c 2.06,0.69 4.16,1.29 6.18,2.09 a 69.41,69.41 0 0 1 22.85,14.65 6.87,6.87 0 0 1 1.72,3.71 c 1.92,11.77 -1,22.51 -7.61,32.22 -9.13,13.38 -21.9,21.39 -37.73,24.43 a 91,91 0 0 1 -11.1,1 14,14 0 0 1 -2.62,-0.33 V 99.58 C 77.2,99.03 78.46,98.51 79.7,97.93 93.26,91.6 102.15,81.07 106.77,67 c 4.67,-14.27 3.57,-28.38 -2,-42.23 l -0.87,-2.16 z"
                     id="path502" />
                  <path
                     d="m 40.43,16.92 c 1.41,-1.25 2.79,-2.55 4.25,-3.75 A 72.36,72.36 0 0 1 68.75,0.3 a 6.43,6.43 0 0 1 4.41,0.2 41.48,41.48 0 0 1 19.4,14.79 c 9.48,12.94 12.15,27.48 9.8,43.12 a 52,52 0 0 1 -7.56,20.21 4.89,4.89 0 0 1 -1.56,1.59 12.18,12.18 0 0 1 0,-1.48 C 95.76,58.68 88.32,42.78 72.9,30.34 63.9,23.08 53.41,19.21 42.01,17.66 41.54,17.6 41.07,17.5 40.6,17.43 Z m 2,52.8 c -0.11,1.07 -0.21,2.13 -0.33,3.2 -1.43,12.1 1.48,23.16 8.07,33.32 A 54.3,54.3 0 0 0 63,120 62.47,62.47 0 0 0 92.65,132.2 c 0.82,0.12 1.63,0.27 2.44,0.4 l 0.15,0.47 c -1.69,1.47 -3.34,3 -5.08,4.39 A 72.74,72.74 0 0 1 66.33,149.8 6.38,6.38 0 0 1 61.82,149.24 42.27,42.27 0 0 1 38.9,128.15 c -9.12,-18.22 -8.86,-36.52 0.56,-54.62 0.72,-1.39 1.69,-2.65 2.54,-4 z"
                     id="path503" />
                  <path
                     d="M 4,70.13 A 59.17,59.17 0 0 1 1.87,56.32 71.57,71.57 0 0 1 3.87,36 a 3.85,3.85 0 0 1 1,-1.78 37.51,37.51 0 0 1 18.22,-9.54 c 14.38,-3.27 27.77,-0.45 40.31,7 a 55.11,55.11 0 0 1 20.66,21.01 c 0.39,0.7 0.71,1.44 1,2.17 a 3.1,3.1 0 0 1 0.08,0.78 6,6 0 0 1 -1,-0.52 C 66.13,41.44 46.94,40.74 27,50.36 18.2,54.58 11.15,61 5.25,68.67 4.92,69.09 4.56,69.48 4,70.13 Z m 46.59,24.25 c 1.76,1.23 3.47,2.54 5.28,3.69 a 48.56,48.56 0 0 0 30.93,7.72 c 17.77,-1.49 31.81,-9.9 42.87,-23.66 0.5,-0.62 1,-1.23 1.72,-2.07 a 9.37,9.37 0 0 1 0.7,1.57 67.4,67.4 0 0 1 1.46,20.71 c -0.33,3.4 -1,6.77 -1.43,10.16 a 6.94,6.94 0 0 1 -2.8,4.62 c -9.42,7.57 -20.3,10.4 -32.1,9.34 C 79,124.82 64.55,116.2 53.93,101.29 a 74.89,74.89 0 0 1 -3.81,-6.57 z"
                     id="path504" />
                  <path
                     d="m 59.56,50.44 c -1.37,0.61 -2.75,1.18 -4.1,1.83 C 42.56,58.41 34,68.42 29.19,81.78 a 58,58 0 0 0 -2.74,27.4 64.67,64.67 0 0 0 4.67,17 c 0.15,0.36 0.26,0.73 0.49,1.38 A 8.78,8.78 0 0 1 30,127.37 69.7,69.7 0 0 1 5.89,114.24 c -1,-0.8 -1.83,-1.76 -2.86,-2.45 -1.79,-1.19 -2.27,-3 -2.56,-4.9 C -1.22,95.3 1.68,84.76 8.12,75.2 16.34,63 27.88,55.33 42,51.45 a 50.64,50.64 0 0 1 16.31,-1.62 10.9,10.9 0 0 1 1.27,0.23 z"
                     id="path505" />
                </svg>
              </svg>
            </g>
          </g>
          <g
             transform="matrix(1.1501519,0,0,1.1501519,39.609312,120.84479)"
             id="g508">
            <rect
               fill="#000000"
               fill-opacity="1"
               x="-3.5"
               y="-3.5"
               width="154.59"
               height="36.849998"
               id="rect507" />
            <rect
               fill="#000000"
               fill-opacity="1"
               x="-3.5"
               y="-3.5"
               transform="translate(9.6090576,36.85)"
               width="79.361801"
               height="17.017"
               id="rect508" />
          </g>
          <g
             transform="matrix(1.1501519,0,0,1.1501519,39.609312,120.84479)"
             fill="#000000"
             id="g517">
            <g
               fill-rule=""
               class="tp-name"
               id="g513">
              <g
                 id="g512">
                <g
                   id="g509">
                  <path
                     d="M 11.17,-2.38 2.58,-27.82 H 0.32 l 9.74,27.9 h 2.3 l 4.45,-13.12 3.5,-10.93 3.5,11.01 4.41,13.04 h 2.31 l 9.81,-27.9 h -2.3 l -8.63,25.44 -8.5,-25.44 h -1.2 z m 38.12,2.66 c 3.14,0 6.56,-1.27 8.46,-3.78 l -1.39,-1.11 c -1.47,1.95 -4.49,2.98 -7.07,2.98 -4.06,0 -7.59,-2.66 -7.99,-7.27 h 17.69 c 0.75,-7.67 -4.18,-11.05 -9.7,-11.05 -5.53,0 -9.98,4.25 -9.98,10.13 0,6.24 4.45,10.1 9.98,10.1 z M 41.3,-10.61 c 0.43,-4.81 3.93,-7.55 7.99,-7.55 4.73,0 7.91,2.7 7.95,7.55 z m 32.71,-7.48 c 4.41,0 8.03,2.75 8.03,8.27 0,5.45 -3.62,8.23 -8.03,8.23 -4.61,0 -8.03,-3.38 -8.03,-8.27 0,-4.89 3.5,-8.23 8.03,-8.23 z m -9.98,-9.73 V 0 h 1.91 v -4.33 c 1.63,2.98 4.85,4.65 8.19,4.65 5.48,0 9.82,-3.62 9.82,-10.14 0,-6.48 -4.38,-10.13 -9.86,-10.13 -3.38,0 -6.56,1.43 -8.15,4.61 v -12.48 z"
                     transform="translate(-0.32000002,28.34)"
                     id="path508" />
                </g>
                <g
                   transform="translate(86.629997)"
                   id="g511">
                  <g
                     id="g510">
                    <path
                       d="m 20.94,-28.34 v 0 q -0.31,1.15 -0.99,2.71 -0.68,1.56 -1.56,3.42 -0.88,1.85 -1.89,3.91 -1.01,2.06 -1.98,4.16 -0.97,2.11 -1.82,4.2 -0.84,2.1 -1.4,4.02 v 0 q 1.22,-0.25 2.42,-0.58 1.2,-0.33 2.36,-0.8 1.15,-0.46 2.26,-1.12 1.11,-0.66 2.14,-1.59 v 0 q -0.12,1.02 -0.19,2.02 -0.07,1 -0.07,1.99 v 0 q 0,1.61 0.17,3.21 0.16,1.61 0.51,3.18 v 0 q -2.42,-0.35 -5.02,-0.53 -2.6,-0.17 -5.26,-0.17 v 0 q -2.72,0 -5.39,0.17 -2.67,0.18 -5.19,0.53 v 0 q 2.44,-5.98 5.13,-11.4 2.69,-5.43 5.68,-10.38 v 0 q -2.43,0.12 -4.92,0.9 -2.49,0.77 -4.86,2.09 v 0 q 0.15,-1.09 0.24,-2.12 0.09,-1.04 0.09,-2.05 v 0 q 0,-1.42 -0.17,-2.79 -0.16,-1.36 -0.55,-2.7 v 0 q 2.1,0.23 4.33,0.36 2.23,0.12 4.54,0.12 v 0 q 2.93,0 5.81,-0.2 2.88,-0.21 5.58,-0.56 z m 18.21,10.29 v 0 q 0,1.46 -0.42,2.83 -0.42,1.38 -1.47,2.45 -1.04,1.07 -2.82,1.71 -1.78,0.64 -4.51,0.64 v 0 q 0.07,0.95 0.39,1.59 0.33,0.64 0.77,1.03 0.45,0.39 0.95,0.58 0.51,0.19 0.93,0.27 0.43,0.08 0.72,0.08 0.29,0 0.29,0 v 0 q 1.21,-0.14 2.16,-0.62 v 0 q 0.41,-0.2 0.79,-0.5 0.39,-0.3 0.71,-0.71 0.32,-0.42 0.53,-0.96 0.2,-0.53 0.24,-1.23 v 0 q 0.5,1.26 0.71,2.36 0.2,1.1 0.2,2.05 v 0 q 0,1.74 -0.63,3.21 -0.63,1.47 -1.74,2.53 -1.1,1.07 -2.63,1.66 -1.52,0.59 -3.31,0.59 v 0 q -1.74,0 -3.36,-0.6 Q 26.03,0.31 24.77,-1 23.52,-2.31 22.78,-4.41 22.03,-6.5 22.03,-9.49 v 0 q 0,-3.24 0.93,-5.75 0.93,-2.5 2.5,-4.2 1.58,-1.7 3.64,-2.58 2.07,-0.88 4.34,-0.88 v 0 q 1.13,0 2.16,0.25 1.04,0.25 1.83,0.84 0.78,0.58 1.25,1.5 0.47,0.92 0.47,2.26 z m -9.3,4.43 v 0 q 0.54,-0.02 1.26,-0.23 0.72,-0.2 1.36,-0.57 0.64,-0.37 1.08,-0.91 0.43,-0.55 0.43,-1.24 v 0 q 0,-0.45 -0.31,-0.72 -0.31,-0.27 -0.79,-0.27 v 0 q -0.68,0 -1.22,0.38 -0.53,0.39 -0.91,0.97 -0.38,0.59 -0.61,1.29 -0.23,0.69 -0.29,1.3 z M 61,0.39 v 0 Q 60.4,0.29 59.68,0.26 58.96,0.23 58.19,0.23 v 0 q -0.94,0 -1.9,0.05 -0.96,0.05 -1.87,0.13 -0.91,0.08 -1.73,0.17 -0.81,0.1 -1.41,0.18 v 0 q 0.83,-2.82 1.29,-6.02 0.45,-3.2 0.45,-7.1 v 0 q 0,-0.29 -0.01,-0.78 -0.01,-0.48 -0.05,-1.05 -0.03,-0.56 -0.12,-1.13 -0.09,-0.58 -0.25,-1.04 -0.17,-0.47 -0.42,-0.76 -0.25,-0.29 -0.62,-0.29 v 0 q -0.55,0 -1.06,0.39 -0.51,0.39 -0.91,1.03 -0.4,0.64 -0.64,1.47 -0.25,0.84 -0.25,1.73 v 0 q 0,1.61 0.08,3.27 0.08,1.66 0.25,3.29 0.18,1.63 0.45,3.19 0.27,1.56 0.68,2.96 v 0 Q 49.82,-0.1 49.37,-0.14 v 0 q -0.38,-0.02 -0.91,-0.03 -0.52,-0.02 -1.2,-0.02 v 0 q -1.26,0 -2.91,0.1 -1.65,0.11 -3.57,0.4 v 0 q 0.23,-1.09 0.4,-2.66 0.18,-1.57 0.29,-3.41 0.12,-1.85 0.19,-3.86 0.07,-2.01 0.07,-3.97 v 0 q 0,-1.45 -0.04,-2.85 -0.04,-1.4 -0.11,-2.64 -0.07,-1.24 -0.18,-2.29 -0.12,-1.05 -0.27,-1.8 v 0 q 1.57,0.27 2.91,0.38 1.34,0.1 2.42,0.1 v 0 q 0.7,0 1.25,-0.03 0.56,-0.03 0.95,-0.06 v 0 q 0.46,-0.06 0.81,-0.12 v 0 q -0.12,0.6 -0.22,1.28 -0.11,0.68 -0.21,1.47 v 0 q 0.64,-0.81 1.36,-1.42 0.72,-0.61 1.45,-1.02 0.73,-0.41 1.44,-0.61 0.72,-0.21 1.36,-0.21 v 0 q 1.4,0 2.42,0.58 1.02,0.57 1.69,1.79 0.67,1.22 1,3.13 0.33,1.9 0.33,4.56 v 0 q 0,1.82 0.01,3.7 0.01,1.89 0.08,3.69 0.08,1.81 0.28,3.43 0.19,1.62 0.54,2.92 z"
                       transform="translate(-0.04,28.34)"
                       id="path509" />
                  </g>
                </g>
              </g>
            </g>
            <g
               fill-rule=""
               class="tp-slogan"
               transform="translate(9.6140976,36.85)"
               fill="#ffffff"
               id="g516">
              <g
                 id="g515">
                <g
                   transform="scale(1.26)"
                   id="g514">
                  <path
                     d="m 4.08,-7.15 c 2.56,0 2.56,3.95 0,3.95 H 1.3 v -3.95 z m 0,4.49 c 3.34,0 3.34,-5.04 0,-5.04 -1.12,0 -2.25,0 -3.38,0 V 0 h 0.6 v -2.66 z m 7.25,-0.29 c 1.68,0 2.51,-1.1 2.5,-2.35 -0.01,-1.2 -0.86,-2.4 -2.53,-2.4 -1.14,0 -2.26,0 -3.39,0 V 0 H 8.5 v -2.92 h 2.1 L 13.27,0 h 0.78 z M 8.5,-7.15 h 2.8 c 1.27,0 1.89,0.94 1.88,1.84 -0.01,1.08 -0.61,1.83 -1.95,1.83 H 8.5 Z m 10.09,-0.67 c -2.6,0 -3.88,1.89 -3.88,3.96 0,2.03 1.29,3.99 3.88,3.99 2.58,0 3.87,-1.94 3.88,-3.97 0.01,-2.08 -1.28,-3.98 -3.88,-3.98 z m 0,0.55 c 2.21,0 3.31,1.64 3.31,3.42 0,1.74 -1.11,3.43 -3.31,3.43 -2.19,0 -3.29,-1.69 -3.3,-3.43 -0.01,-1.82 1.09,-3.42 3.3,-3.42 z m 10.48,4.37 c 0,1.59 -1.04,2.47 -2.46,2.47 -1.42,0 -2.49,-1.01 -2.49,-2.47 h -0.55 c 0,1.79 1.29,3.02 3.04,3.02 1.75,0 3.05,-1.13 3.05,-3.02 v -4.8 h -3.53 v 0.52 h 2.94 z m 2.86,-4.24 h 4.73 V -7.7 H 31.35 V 0 h 5.45 v -0.57 h -4.87 v -3.04 h 4.51 v -0.54 h -4.51 z m 12.14,5.7 c -0.66,0.65 -1.54,0.98 -2.41,0.98 -2.23,0 -3.37,-1.56 -3.39,-3.37 -0.01,-1.85 1.14,-3.43 3.39,-3.43 0.87,0 1.73,0.32 2.39,0.98 l 0.41,-0.35 c -0.77,-0.77 -1.79,-1.16 -2.8,-1.16 -2.64,0 -3.99,1.93 -3.96,3.98 0.01,2.08 1.36,3.9 3.96,3.9 1.01,0 2.03,-0.39 2.8,-1.16 z M 47.93,0 h 0.59 v -7.16 h 2.78 v -0.53 h -6.16 v 0.53 h 2.79 z m 9.97,-6.5 c -0.75,-1.13 -1.71,-1.31 -2.81,-1.31 -1.27,0 -2.96,0.51 -2.93,2.13 0,1.42 1.44,1.71 2.85,1.98 1.27,0.25 2.54,0.5 2.53,1.65 0,1.37 -1.51,1.63 -2.45,1.63 -0.95,0 -2.16,-0.46 -2.63,-1.39 l -0.53,0.26 c 0.59,1.18 1.96,1.67 3.16,1.67 1.29,0 3.03,-0.42 3.04,-2.15 0,-1.67 -1.54,-1.93 -3.02,-2.22 -1.3,-0.24 -2.35,-0.47 -2.35,-1.45 0,-1.23 1.43,-1.56 2.33,-1.56 0.87,0.01 1.77,0.14 2.33,1.05 z"
                     transform="translate(-0.704,7.821)"
                     id="path513" />
                </g>
              </g>
            </g>
          </g>
        </g>
      </g>
    </mask>
    <mask
       id="mask626">
      <g
         id="g645"
         transform="matrix(1.1501519,0,0,1.1501519,-46.913741,0.00307598)">
        <g
           id="g644"
           transform="matrix(1.1501519,0,0,1.1501519,-46.913741,0.00307598)">
          <g
             id="g643">
            <g
               id="g642">
              <g
                 fill="#ffffff"
                 id="g631"
                 transform="translate(161.2725,67.755054)">
                <g
                   id="g630">
                  <rect
                     fill-opacity="1"
                     stroke-width="2"
                     x="0"
                     y="0"
                     width="103.5"
                     height="114.48988"
                     class="image-rect"
                     id="rect626" />
                  <svg
                     x="0"
                     y="0"
                     width="103.5"
                     height="114.48988"
                     filtersec="colorsb978988562"
                     class="image-svg-svg primary"
                     style="overflow:visible"
                     version="1.1"
                     id="svg630">
                    <svg
                       viewBox="-0.0034506619 0.0030755417 135.584 149.98071"
                       version="1.1"
                       id="svg629"
                       width="100%"
                       height="100%">
                      <path
                         d="m 104.25,22.18 c 2.06,0.69 4.16,1.29 6.18,2.09 a 69.41,69.41 0 0 1 22.85,14.65 6.87,6.87 0 0 1 1.72,3.71 c 1.92,11.77 -1,22.51 -7.61,32.22 -9.13,13.38 -21.9,21.39 -37.73,24.43 a 91,91 0 0 1 -11.1,1 14,14 0 0 1 -2.62,-0.33 V 99.58 C 77.2,99.03 78.46,98.51 79.7,97.93 93.26,91.6 102.15,81.07 106.77,67 c 4.67,-14.27 3.57,-28.38 -2,-42.23 l -0.87,-2.16 z"
                         id="path626" />
                      <path
                         d="m 40.43,16.92 c 1.41,-1.25 2.79,-2.55 4.25,-3.75 A 72.36,72.36 0 0 1 68.75,0.3 a 6.43,6.43 0 0 1 4.41,0.2 41.48,41.48 0 0 1 19.4,14.79 c 9.48,12.94 12.15,27.48 9.8,43.12 a 52,52 0 0 1 -7.56,20.21 4.89,4.89 0 0 1 -1.56,1.59 12.18,12.18 0 0 1 0,-1.48 C 95.76,58.68 88.32,42.78 72.9,30.34 63.9,23.08 53.41,19.21 42.01,17.66 41.54,17.6 41.07,17.5 40.6,17.43 Z m 2,52.8 c -0.11,1.07 -0.21,2.13 -0.33,3.2 -1.43,12.1 1.48,23.16 8.07,33.32 A 54.3,54.3 0 0 0 63,120 62.47,62.47 0 0 0 92.65,132.2 c 0.82,0.12 1.63,0.27 2.44,0.4 l 0.15,0.47 c -1.69,1.47 -3.34,3 -5.08,4.39 A 72.74,72.74 0 0 1 66.33,149.8 6.38,6.38 0 0 1 61.82,149.24 42.27,42.27 0 0 1 38.9,128.15 c -9.12,-18.22 -8.86,-36.52 0.56,-54.62 0.72,-1.39 1.69,-2.65 2.54,-4 z"
                         id="path627" />
                      <path
                         d="M 4,70.13 A 59.17,59.17 0 0 1 1.87,56.32 71.57,71.57 0 0 1 3.87,36 a 3.85,3.85 0 0 1 1,-1.78 37.51,37.51 0 0 1 18.22,-9.54 c 14.38,-3.27 27.77,-0.45 40.31,7 a 55.11,55.11 0 0 1 20.66,21.01 c 0.39,0.7 0.71,1.44 1,2.17 a 3.1,3.1 0 0 1 0.08,0.78 6,6 0 0 1 -1,-0.52 C 66.13,41.44 46.94,40.74 27,50.36 18.2,54.58 11.15,61 5.25,68.67 4.92,69.09 4.56,69.48 4,70.13 Z m 46.59,24.25 c 1.76,1.23 3.47,2.54 5.28,3.69 a 48.56,48.56 0 0 0 30.93,7.72 c 17.77,-1.49 31.81,-9.9 42.87,-23.66 0.5,-0.62 1,-1.23 1.72,-2.07 a 9.37,9.37 0 0 1 0.7,1.57 67.4,67.4 0 0 1 1.46,20.71 c -0.33,3.4 -1,6.77 -1.43,10.16 a 6.94,6.94 0 0 1 -2.8,4.62 c -9.42,7.57 -20.3,10.4 -32.1,9.34 C 79,124.82 64.55,116.2 53.93,101.29 a 74.89,74.89 0 0 1 -3.81,-6.57 z"
                         id="path628" />
                      <path
                         d="m 59.56,50.44 c -1.37,0.61 -2.75,1.18 -4.1,1.83 C 42.56,58.41 34,68.42 29.19,81.78 a 58,58 0 0 0 -2.74,27.4 64.67,64.67 0 0 0 4.67,17 c 0.15,0.36 0.26,0.73 0.49,1.38 A 8.78,8.78 0 0 1 30,127.37 69.7,69.7 0 0 1 5.89,114.24 c -1,-0.8 -1.83,-1.76 -2.86,-2.45 -1.79,-1.19 -2.27,-3 -2.56,-4.9 C -1.22,95.3 1.68,84.76 8.12,75.2 16.34,63 27.88,55.33 42,51.45 a 50.64,50.64 0 0 1 16.31,-1.62 10.9,10.9 0 0 1 1.27,0.23 z"
                         id="path629" />
                    </svg>
                  </svg>
                </g>
              </g>
              <g
                 transform="translate(75.227502,105.06587)"
                 id="g632">
                <rect
                   fill="#000000"
                   fill-opacity="1"
                   x="-3.5"
                   y="-3.5"
                   width="154.59"
                   height="36.849998"
                   id="rect631" />
                <rect
                   fill="#000000"
                   fill-opacity="1"
                   x="-3.5"
                   y="-3.5"
                   transform="translate(9.6090576,36.85)"
                   width="79.361801"
                   height="17.017"
                   id="rect632" />
              </g>
              <g
                 transform="translate(75.227502,105.06587)"
                 fill="#000000"
                 id="g641">
                <g
                   fill-rule=""
                   class="tp-name"
                   id="g637">
                  <g
                     id="g636">
                    <g
                       id="g633">
                      <path
                         d="M 11.17,-2.38 2.58,-27.82 H 0.32 l 9.74,27.9 h 2.3 l 4.45,-13.12 3.5,-10.93 3.5,11.01 4.41,13.04 h 2.31 l 9.81,-27.9 h -2.3 l -8.63,25.44 -8.5,-25.44 h -1.2 z m 38.12,2.66 c 3.14,0 6.56,-1.27 8.46,-3.78 l -1.39,-1.11 c -1.47,1.95 -4.49,2.98 -7.07,2.98 -4.06,0 -7.59,-2.66 -7.99,-7.27 h 17.69 c 0.75,-7.67 -4.18,-11.05 -9.7,-11.05 -5.53,0 -9.98,4.25 -9.98,10.13 0,6.24 4.45,10.1 9.98,10.1 z M 41.3,-10.61 c 0.43,-4.81 3.93,-7.55 7.99,-7.55 4.73,0 7.91,2.7 7.95,7.55 z m 32.71,-7.48 c 4.41,0 8.03,2.75 8.03,8.27 0,5.45 -3.62,8.23 -8.03,8.23 -4.61,0 -8.03,-3.38 -8.03,-8.27 0,-4.89 3.5,-8.23 8.03,-8.23 z m -9.98,-9.73 V 0 h 1.91 v -4.33 c 1.63,2.98 4.85,4.65 8.19,4.65 5.48,0 9.82,-3.62 9.82,-10.14 0,-6.48 -4.38,-10.13 -9.86,-10.13 -3.38,0 -6.56,1.43 -8.15,4.61 v -12.48 z"
                         transform="translate(-0.32000002,28.34)"
                         id="path632" />
                    </g>
                    <g
                       transform="translate(86.629997)"
                       id="g635">
                      <g
                         id="g634">
                        <path
                           d="m 20.94,-28.34 v 0 q -0.31,1.15 -0.99,2.71 -0.68,1.56 -1.56,3.42 -0.88,1.85 -1.89,3.91 -1.01,2.06 -1.98,4.16 -0.97,2.11 -1.82,4.2 -0.84,2.1 -1.4,4.02 v 0 q 1.22,-0.25 2.42,-0.58 1.2,-0.33 2.36,-0.8 1.15,-0.46 2.26,-1.12 1.11,-0.66 2.14,-1.59 v 0 q -0.12,1.02 -0.19,2.02 -0.07,1 -0.07,1.99 v 0 q 0,1.61 0.17,3.21 0.16,1.61 0.51,3.18 v 0 q -2.42,-0.35 -5.02,-0.53 -2.6,-0.17 -5.26,-0.17 v 0 q -2.72,0 -5.39,0.17 -2.67,0.18 -5.19,0.53 v 0 q 2.44,-5.98 5.13,-11.4 2.69,-5.43 5.68,-10.38 v 0 q -2.43,0.12 -4.92,0.9 -2.49,0.77 -4.86,2.09 v 0 q 0.15,-1.09 0.24,-2.12 0.09,-1.04 0.09,-2.05 v 0 q 0,-1.42 -0.17,-2.79 -0.16,-1.36 -0.55,-2.7 v 0 q 2.1,0.23 4.33,0.36 2.23,0.12 4.54,0.12 v 0 q 2.93,0 5.81,-0.2 2.88,-0.21 5.58,-0.56 z m 18.21,10.29 v 0 q 0,1.46 -0.42,2.83 -0.42,1.38 -1.47,2.45 -1.04,1.07 -2.82,1.71 -1.78,0.64 -4.51,0.64 v 0 q 0.07,0.95 0.39,1.59 0.33,0.64 0.77,1.03 0.45,0.39 0.95,0.58 0.51,0.19 0.93,0.27 0.43,0.08 0.72,0.08 0.29,0 0.29,0 v 0 q 1.21,-0.14 2.16,-0.62 v 0 q 0.41,-0.2 0.79,-0.5 0.39,-0.3 0.71,-0.71 0.32,-0.42 0.53,-0.96 0.2,-0.53 0.24,-1.23 v 0 q 0.5,1.26 0.71,2.36 0.2,1.1 0.2,2.05 v 0 q 0,1.74 -0.63,3.21 -0.63,1.47 -1.74,2.53 -1.1,1.07 -2.63,1.66 -1.52,0.59 -3.31,0.59 v 0 q -1.74,0 -3.36,-0.6 Q 26.03,0.31 24.77,-1 23.52,-2.31 22.78,-4.41 22.03,-6.5 22.03,-9.49 v 0 q 0,-3.24 0.93,-5.75 0.93,-2.5 2.5,-4.2 1.58,-1.7 3.64,-2.58 2.07,-0.88 4.34,-0.88 v 0 q 1.13,0 2.16,0.25 1.04,0.25 1.83,0.84 0.78,0.58 1.25,1.5 0.47,0.92 0.47,2.26 z m -9.3,4.43 v 0 q 0.54,-0.02 1.26,-0.23 0.72,-0.2 1.36,-0.57 0.64,-0.37 1.08,-0.91 0.43,-0.55 0.43,-1.24 v 0 q 0,-0.45 -0.31,-0.72 -0.31,-0.27 -0.79,-0.27 v 0 q -0.68,0 -1.22,0.38 -0.53,0.39 -0.91,0.97 -0.38,0.59 -0.61,1.29 -0.23,0.69 -0.29,1.3 z M 61,0.39 v 0 Q 60.4,0.29 59.68,0.26 58.96,0.23 58.19,0.23 v 0 q -0.94,0 -1.9,0.05 -0.96,0.05 -1.87,0.13 -0.91,0.08 -1.73,0.17 -0.81,0.1 -1.41,0.18 v 0 q 0.83,-2.82 1.29,-6.02 0.45,-3.2 0.45,-7.1 v 0 q 0,-0.29 -0.01,-0.78 -0.01,-0.48 -0.05,-1.05 -0.03,-0.56 -0.12,-1.13 -0.09,-0.58 -0.25,-1.04 -0.17,-0.47 -0.42,-0.76 -0.25,-0.29 -0.62,-0.29 v 0 q -0.55,0 -1.06,0.39 -0.51,0.39 -0.91,1.03 -0.4,0.64 -0.64,1.47 -0.25,0.84 -0.25,1.73 v 0 q 0,1.61 0.08,3.27 0.08,1.66 0.25,3.29 0.18,1.63 0.45,3.19 0.27,1.56 0.68,2.96 v 0 Q 49.82,-0.1 49.37,-0.14 v 0 q -0.38,-0.02 -0.91,-0.03 -0.52,-0.02 -1.2,-0.02 v 0 q -1.26,0 -2.91,0.1 -1.65,0.11 -3.57,0.4 v 0 q 0.23,-1.09 0.4,-2.66 0.18,-1.57 0.29,-3.41 0.12,-1.85 0.19,-3.86 0.07,-2.01 0.07,-3.97 v 0 q 0,-1.45 -0.04,-2.85 -0.04,-1.4 -0.11,-2.64 -0.07,-1.24 -0.18,-2.29 -0.12,-1.05 -0.27,-1.8 v 0 q 1.57,0.27 2.91,0.38 1.34,0.1 2.42,0.1 v 0 q 0.7,0 1.25,-0.03 0.56,-0.03 0.95,-0.06 v 0 q 0.46,-0.06 0.81,-0.12 v 0 q -0.12,0.6 -0.22,1.28 -0.11,0.68 -0.21,1.47 v 0 q 0.64,-0.81 1.36,-1.42 0.72,-0.61 1.45,-1.02 0.73,-0.41 1.44,-0.61 0.72,-0.21 1.36,-0.21 v 0 q 1.4,0 2.42,0.58 1.02,0.57 1.69,1.79 0.67,1.22 1,3.13 0.33,1.9 0.33,4.56 v 0 q 0,1.82 0.01,3.7 0.01,1.89 0.08,3.69 0.08,1.81 0.28,3.43 0.19,1.62 0.54,2.92 z"
                           transform="translate(-0.04,28.34)"
                           id="path633" />
                      </g>
                    </g>
                  </g>
                </g>
                <g
                   fill-rule=""
                   class="tp-slogan"
                   transform="translate(9.6140976,36.85)"
                   fill="#ffffff"
                   id="g640">
                  <g
                     id="g639">
                    <g
                       transform="scale(1.26)"
                       id="g638">
                      <path
                         d="m 4.08,-7.15 c 2.56,0 2.56,3.95 0,3.95 H 1.3 v -3.95 z m 0,4.49 c 3.34,0 3.34,-5.04 0,-5.04 -1.12,0 -2.25,0 -3.38,0 V 0 h 0.6 v -2.66 z m 7.25,-0.29 c 1.68,0 2.51,-1.1 2.5,-2.35 -0.01,-1.2 -0.86,-2.4 -2.53,-2.4 -1.14,0 -2.26,0 -3.39,0 V 0 H 8.5 v -2.92 h 2.1 L 13.27,0 h 0.78 z M 8.5,-7.15 h 2.8 c 1.27,0 1.89,0.94 1.88,1.84 -0.01,1.08 -0.61,1.83 -1.95,1.83 H 8.5 Z m 10.09,-0.67 c -2.6,0 -3.88,1.89 -3.88,3.96 0,2.03 1.29,3.99 3.88,3.99 2.58,0 3.87,-1.94 3.88,-3.97 0.01,-2.08 -1.28,-3.98 -3.88,-3.98 z m 0,0.55 c 2.21,0 3.31,1.64 3.31,3.42 0,1.74 -1.11,3.43 -3.31,3.43 -2.19,0 -3.29,-1.69 -3.3,-3.43 -0.01,-1.82 1.09,-3.42 3.3,-3.42 z m 10.48,4.37 c 0,1.59 -1.04,2.47 -2.46,2.47 -1.42,0 -2.49,-1.01 -2.49,-2.47 h -0.55 c 0,1.79 1.29,3.02 3.04,3.02 1.75,0 3.05,-1.13 3.05,-3.02 v -4.8 h -3.53 v 0.52 h 2.94 z m 2.86,-4.24 h 4.73 V -7.7 H 31.35 V 0 h 5.45 v -0.57 h -4.87 v -3.04 h 4.51 v -0.54 h -4.51 z m 12.14,5.7 c -0.66,0.65 -1.54,0.98 -2.41,0.98 -2.23,0 -3.37,-1.56 -3.39,-3.37 -0.01,-1.85 1.14,-3.43 3.39,-3.43 0.87,0 1.73,0.32 2.39,0.98 l 0.41,-0.35 c -0.77,-0.77 -1.79,-1.16 -2.8,-1.16 -2.64,0 -3.99,1.93 -3.96,3.98 0.01,2.08 1.36,3.9 3.96,3.9 1.01,0 2.03,-0.39 2.8,-1.16 z M 47.93,0 h 0.59 v -7.16 h 2.78 v -0.53 h -6.16 v 0.53 h 2.79 z m 9.97,-6.5 c -0.75,-1.13 -1.71,-1.31 -2.81,-1.31 -1.27,0 -2.96,0.51 -2.93,2.13 0,1.42 1.44,1.71 2.85,1.98 1.27,0.25 2.54,0.5 2.53,1.65 0,1.37 -1.51,1.63 -2.45,1.63 -0.95,0 -2.16,-0.46 -2.63,-1.39 l -0.53,0.26 c 0.59,1.18 1.96,1.67 3.16,1.67 1.29,0 3.03,-0.42 3.04,-2.15 0,-1.67 -1.54,-1.93 -3.02,-2.22 -1.3,-0.24 -2.35,-0.47 -2.35,-1.45 0,-1.23 1.43,-1.56 2.33,-1.56 0.87,0.01 1.77,0.14 2.33,1.05 z"
                         transform="translate(-0.704,7.821)"
                         id="path637" />
                    </g>
                  </g>
                </g>
              </g>
            </g>
          </g>
        </g>
      </g>
    </mask>
    <mask
       id="mask645">
      <g
         id="g664"
         transform="matrix(1.1501519,0,0,1.1501519,-46.913741,0.00307598)">
        <g
           id="g663"
           transform="matrix(1.1501519,0,0,1.1501519,-46.913741,0.00307598)">
          <g
             id="g662">
            <g
               id="g661">
              <g
                 fill="#ffffff"
                 id="g650"
                 transform="translate(161.2725,67.755054)">
                <g
                   id="g649">
                  <rect
                     fill-opacity="1"
                     stroke-width="2"
                     x="0"
                     y="0"
                     width="103.5"
                     height="114.48988"
                     class="image-rect"
                     id="rect645" />
                  <svg
                     x="0"
                     y="0"
                     width="103.5"
                     height="114.48988"
                     filtersec="colorsb978988562"
                     class="image-svg-svg primary"
                     style="overflow:visible"
                     version="1.1"
                     id="svg649">
                    <svg
                       viewBox="-0.0034506619 0.0030755417 135.584 149.98071"
                       version="1.1"
                       id="svg648"
                       width="100%"
                       height="100%">
                      <path
                         d="m 104.25,22.18 c 2.06,0.69 4.16,1.29 6.18,2.09 a 69.41,69.41 0 0 1 22.85,14.65 6.87,6.87 0 0 1 1.72,3.71 c 1.92,11.77 -1,22.51 -7.61,32.22 -9.13,13.38 -21.9,21.39 -37.73,24.43 a 91,91 0 0 1 -11.1,1 14,14 0 0 1 -2.62,-0.33 V 99.58 C 77.2,99.03 78.46,98.51 79.7,97.93 93.26,91.6 102.15,81.07 106.77,67 c 4.67,-14.27 3.57,-28.38 -2,-42.23 l -0.87,-2.16 z"
                         id="path645" />
                      <path
                         d="m 40.43,16.92 c 1.41,-1.25 2.79,-2.55 4.25,-3.75 A 72.36,72.36 0 0 1 68.75,0.3 a 6.43,6.43 0 0 1 4.41,0.2 41.48,41.48 0 0 1 19.4,14.79 c 9.48,12.94 12.15,27.48 9.8,43.12 a 52,52 0 0 1 -7.56,20.21 4.89,4.89 0 0 1 -1.56,1.59 12.18,12.18 0 0 1 0,-1.48 C 95.76,58.68 88.32,42.78 72.9,30.34 63.9,23.08 53.41,19.21 42.01,17.66 41.54,17.6 41.07,17.5 40.6,17.43 Z m 2,52.8 c -0.11,1.07 -0.21,2.13 -0.33,3.2 -1.43,12.1 1.48,23.16 8.07,33.32 A 54.3,54.3 0 0 0 63,120 62.47,62.47 0 0 0 92.65,132.2 c 0.82,0.12 1.63,0.27 2.44,0.4 l 0.15,0.47 c -1.69,1.47 -3.34,3 -5.08,4.39 A 72.74,72.74 0 0 1 66.33,149.8 6.38,6.38 0 0 1 61.82,149.24 42.27,42.27 0 0 1 38.9,128.15 c -9.12,-18.22 -8.86,-36.52 0.56,-54.62 0.72,-1.39 1.69,-2.65 2.54,-4 z"
                         id="path646" />
                      <path
                         d="M 4,70.13 A 59.17,59.17 0 0 1 1.87,56.32 71.57,71.57 0 0 1 3.87,36 a 3.85,3.85 0 0 1 1,-1.78 37.51,37.51 0 0 1 18.22,-9.54 c 14.38,-3.27 27.77,-0.45 40.31,7 a 55.11,55.11 0 0 1 20.66,21.01 c 0.39,0.7 0.71,1.44 1,2.17 a 3.1,3.1 0 0 1 0.08,0.78 6,6 0 0 1 -1,-0.52 C 66.13,41.44 46.94,40.74 27,50.36 18.2,54.58 11.15,61 5.25,68.67 4.92,69.09 4.56,69.48 4,70.13 Z m 46.59,24.25 c 1.76,1.23 3.47,2.54 5.28,3.69 a 48.56,48.56 0 0 0 30.93,7.72 c 17.77,-1.49 31.81,-9.9 42.87,-23.66 0.5,-0.62 1,-1.23 1.72,-2.07 a 9.37,9.37 0 0 1 0.7,1.57 67.4,67.4 0 0 1 1.46,20.71 c -0.33,3.4 -1,6.77 -1.43,10.16 a 6.94,6.94 0 0 1 -2.8,4.62 c -9.42,7.57 -20.3,10.4 -32.1,9.34 C 79,124.82 64.55,116.2 53.93,101.29 a 74.89,74.89 0 0 1 -3.81,-6.57 z"
                         id="path647" />
                      <path
                         d="m 59.56,50.44 c -1.37,0.61 -2.75,1.18 -4.1,1.83 C 42.56,58.41 34,68.42 29.19,81.78 a 58,58 0 0 0 -2.74,27.4 64.67,64.67 0 0 0 4.67,17 c 0.15,0.36 0.26,0.73 0.49,1.38 A 8.78,8.78 0 0 1 30,127.37 69.7,69.7 0 0 1 5.89,114.24 c -1,-0.8 -1.83,-1.76 -2.86,-2.45 -1.79,-1.19 -2.27,-3 -2.56,-4.9 C -1.22,95.3 1.68,84.76 8.12,75.2 16.34,63 27.88,55.33 42,51.45 a 50.64,50.64 0 0 1 16.31,-1.62 10.9,10.9 0 0 1 1.27,0.23 z"
                         id="path648" />
                    </svg>
                  </svg>
                </g>
              </g>
              <g
                 transform="translate(75.227502,105.06587)"
                 id="g651">
                <rect
                   fill="#000000"
                   fill-opacity="1"
                   x="-3.5"
                   y="-3.5"
                   width="154.59"
                   height="36.849998"
                   id="rect650" />
                <rect
                   fill="#000000"
                   fill-opacity="1"
                   x="-3.5"
                   y="-3.5"
                   transform="translate(9.6090576,36.85)"
                   width="79.361801"
                   height="17.017"
                   id="rect651" />
              </g>
              <g
                 transform="translate(75.227502,105.06587)"
                 fill="#000000"
                 id="g660">
                <g
                   fill-rule=""
                   class="tp-name"
                   id="g656">
                  <g
                     id="g655">
                    <g
                       id="g652">
                      <path
                         d="M 11.17,-2.38 2.58,-27.82 H 0.32 l 9.74,27.9 h 2.3 l 4.45,-13.12 3.5,-10.93 3.5,11.01 4.41,13.04 h 2.31 l 9.81,-27.9 h -2.3 l -8.63,25.44 -8.5,-25.44 h -1.2 z m 38.12,2.66 c 3.14,0 6.56,-1.27 8.46,-3.78 l -1.39,-1.11 c -1.47,1.95 -4.49,2.98 -7.07,2.98 -4.06,0 -7.59,-2.66 -7.99,-7.27 h 17.69 c 0.75,-7.67 -4.18,-11.05 -9.7,-11.05 -5.53,0 -9.98,4.25 -9.98,10.13 0,6.24 4.45,10.1 9.98,10.1 z M 41.3,-10.61 c 0.43,-4.81 3.93,-7.55 7.99,-7.55 4.73,0 7.91,2.7 7.95,7.55 z m 32.71,-7.48 c 4.41,0 8.03,2.75 8.03,8.27 0,5.45 -3.62,8.23 -8.03,8.23 -4.61,0 -8.03,-3.38 -8.03,-8.27 0,-4.89 3.5,-8.23 8.03,-8.23 z m -9.98,-9.73 V 0 h 1.91 v -4.33 c 1.63,2.98 4.85,4.65 8.19,4.65 5.48,0 9.82,-3.62 9.82,-10.14 0,-6.48 -4.38,-10.13 -9.86,-10.13 -3.38,0 -6.56,1.43 -8.15,4.61 v -12.48 z"
                         transform="translate(-0.32000002,28.34)"
                         id="path651" />
                    </g>
                    <g
                       transform="translate(86.629997)"
                       id="g654">
                      <g
                         id="g653">
                        <path
                           d="m 20.94,-28.34 v 0 q -0.31,1.15 -0.99,2.71 -0.68,1.56 -1.56,3.42 -0.88,1.85 -1.89,3.91 -1.01,2.06 -1.98,4.16 -0.97,2.11 -1.82,4.2 -0.84,2.1 -1.4,4.02 v 0 q 1.22,-0.25 2.42,-0.58 1.2,-0.33 2.36,-0.8 1.15,-0.46 2.26,-1.12 1.11,-0.66 2.14,-1.59 v 0 q -0.12,1.02 -0.19,2.02 -0.07,1 -0.07,1.99 v 0 q 0,1.61 0.17,3.21 0.16,1.61 0.51,3.18 v 0 q -2.42,-0.35 -5.02,-0.53 -2.6,-0.17 -5.26,-0.17 v 0 q -2.72,0 -5.39,0.17 -2.67,0.18 -5.19,0.53 v 0 q 2.44,-5.98 5.13,-11.4 2.69,-5.43 5.68,-10.38 v 0 q -2.43,0.12 -4.92,0.9 -2.49,0.77 -4.86,2.09 v 0 q 0.15,-1.09 0.24,-2.12 0.09,-1.04 0.09,-2.05 v 0 q 0,-1.42 -0.17,-2.79 -0.16,-1.36 -0.55,-2.7 v 0 q 2.1,0.23 4.33,0.36 2.23,0.12 4.54,0.12 v 0 q 2.93,0 5.81,-0.2 2.88,-0.21 5.58,-0.56 z m 18.21,10.29 v 0 q 0,1.46 -0.42,2.83 -0.42,1.38 -1.47,2.45 -1.04,1.07 -2.82,1.71 -1.78,0.64 -4.51,0.64 v 0 q 0.07,0.95 0.39,1.59 0.33,0.64 0.77,1.03 0.45,0.39 0.95,0.58 0.51,0.19 0.93,0.27 0.43,0.08 0.72,0.08 0.29,0 0.29,0 v 0 q 1.21,-0.14 2.16,-0.62 v 0 q 0.41,-0.2 0.79,-0.5 0.39,-0.3 0.71,-0.71 0.32,-0.42 0.53,-0.96 0.2,-0.53 0.24,-1.23 v 0 q 0.5,1.26 0.71,2.36 0.2,1.1 0.2,2.05 v 0 q 0,1.74 -0.63,3.21 -0.63,1.47 -1.74,2.53 -1.1,1.07 -2.63,1.66 -1.52,0.59 -3.31,0.59 v 0 q -1.74,0 -3.36,-0.6 Q 26.03,0.31 24.77,-1 23.52,-2.31 22.78,-4.41 22.03,-6.5 22.03,-9.49 v 0 q 0,-3.24 0.93,-5.75 0.93,-2.5 2.5,-4.2 1.58,-1.7 3.64,-2.58 2.07,-0.88 4.34,-0.88 v 0 q 1.13,0 2.16,0.25 1.04,0.25 1.83,0.84 0.78,0.58 1.25,1.5 0.47,0.92 0.47,2.26 z m -9.3,4.43 v 0 q 0.54,-0.02 1.26,-0.23 0.72,-0.2 1.36,-0.57 0.64,-0.37 1.08,-0.91 0.43,-0.55 0.43,-1.24 v 0 q 0,-0.45 -0.31,-0.72 -0.31,-0.27 -0.79,-0.27 v 0 q -0.68,0 -1.22,0.38 -0.53,0.39 -0.91,0.97 -0.38,0.59 -0.61,1.29 -0.23,0.69 -0.29,1.3 z M 61,0.39 v 0 Q 60.4,0.29 59.68,0.26 58.96,0.23 58.19,0.23 v 0 q -0.94,0 -1.9,0.05 -0.96,0.05 -1.87,0.13 -0.91,0.08 -1.73,0.17 -0.81,0.1 -1.41,0.18 v 0 q 0.83,-2.82 1.29,-6.02 0.45,-3.2 0.45,-7.1 v 0 q 0,-0.29 -0.01,-0.78 -0.01,-0.48 -0.05,-1.05 -0.03,-0.56 -0.12,-1.13 -0.09,-0.58 -0.25,-1.04 -0.17,-0.47 -0.42,-0.76 -0.25,-0.29 -0.62,-0.29 v 0 q -0.55,0 -1.06,0.39 -0.51,0.39 -0.91,1.03 -0.4,0.64 -0.64,1.47 -0.25,0.84 -0.25,1.73 v 0 q 0,1.61 0.08,3.27 0.08,1.66 0.25,3.29 0.18,1.63 0.45,3.19 0.27,1.56 0.68,2.96 v 0 Q 49.82,-0.1 49.37,-0.14 v 0 q -0.38,-0.02 -0.91,-0.03 -0.52,-0.02 -1.2,-0.02 v 0 q -1.26,0 -2.91,0.1 -1.65,0.11 -3.57,0.4 v 0 q 0.23,-1.09 0.4,-2.66 0.18,-1.57 0.29,-3.41 0.12,-1.85 0.19,-3.86 0.07,-2.01 0.07,-3.97 v 0 q 0,-1.45 -0.04,-2.85 -0.04,-1.4 -0.11,-2.64 -0.07,-1.24 -0.18,-2.29 -0.12,-1.05 -0.27,-1.8 v 0 q 1.57,0.27 2.91,0.38 1.34,0.1 2.42,0.1 v 0 q 0.7,0 1.25,-0.03 0.56,-0.03 0.95,-0.06 v 0 q 0.46,-0.06 0.81,-0.12 v 0 q -0.12,0.6 -0.22,1.28 -0.11,0.68 -0.21,1.47 v 0 q 0.64,-0.81 1.36,-1.42 0.72,-0.61 1.45,-1.02 0.73,-0.41 1.44,-0.61 0.72,-0.21 1.36,-0.21 v 0 q 1.4,0 2.42,0.58 1.02,0.57 1.69,1.79 0.67,1.22 1,3.13 0.33,1.9 0.33,4.56 v 0 q 0,1.82 0.01,3.7 0.01,1.89 0.08,3.69 0.08,1.81 0.28,3.43 0.19,1.62 0.54,2.92 z"
                           transform="translate(-0.04,28.34)"
                           id="path652" />
                      </g>
                    </g>
                  </g>
                </g>
                <g
                   fill-rule=""
                   class="tp-slogan"
                   transform="translate(9.6140976,36.85)"
                   fill="#ffffff"
                   id="g659">
                  <g
                     id="g658">
                    <g
                       transform="scale(1.26)"
                       id="g657">
                      <path
                         d="m 4.08,-7.15 c 2.56,0 2.56,3.95 0,3.95 H 1.3 v -3.95 z m 0,4.49 c 3.34,0 3.34,-5.04 0,-5.04 -1.12,0 -2.25,0 -3.38,0 V 0 h 0.6 v -2.66 z m 7.25,-0.29 c 1.68,0 2.51,-1.1 2.5,-2.35 -0.01,-1.2 -0.86,-2.4 -2.53,-2.4 -1.14,0 -2.26,0 -3.39,0 V 0 H 8.5 v -2.92 h 2.1 L 13.27,0 h 0.78 z M 8.5,-7.15 h 2.8 c 1.27,0 1.89,0.94 1.88,1.84 -0.01,1.08 -0.61,1.83 -1.95,1.83 H 8.5 Z m 10.09,-0.67 c -2.6,0 -3.88,1.89 -3.88,3.96 0,2.03 1.29,3.99 3.88,3.99 2.58,0 3.87,-1.94 3.88,-3.97 0.01,-2.08 -1.28,-3.98 -3.88,-3.98 z m 0,0.55 c 2.21,0 3.31,1.64 3.31,3.42 0,1.74 -1.11,3.43 -3.31,3.43 -2.19,0 -3.29,-1.69 -3.3,-3.43 -0.01,-1.82 1.09,-3.42 3.3,-3.42 z m 10.48,4.37 c 0,1.59 -1.04,2.47 -2.46,2.47 -1.42,0 -2.49,-1.01 -2.49,-2.47 h -0.55 c 0,1.79 1.29,3.02 3.04,3.02 1.75,0 3.05,-1.13 3.05,-3.02 v -4.8 h -3.53 v 0.52 h 2.94 z m 2.86,-4.24 h 4.73 V -7.7 H 31.35 V 0 h 5.45 v -0.57 h -4.87 v -3.04 h 4.51 v -0.54 h -4.51 z m 12.14,5.7 c -0.66,0.65 -1.54,0.98 -2.41,0.98 -2.23,0 -3.37,-1.56 -3.39,-3.37 -0.01,-1.85 1.14,-3.43 3.39,-3.43 0.87,0 1.73,0.32 2.39,0.98 l 0.41,-0.35 c -0.77,-0.77 -1.79,-1.16 -2.8,-1.16 -2.64,0 -3.99,1.93 -3.96,3.98 0.01,2.08 1.36,3.9 3.96,3.9 1.01,0 2.03,-0.39 2.8,-1.16 z M 47.93,0 h 0.59 v -7.16 h 2.78 v -0.53 h -6.16 v 0.53 h 2.79 z m 9.97,-6.5 c -0.75,-1.13 -1.71,-1.31 -2.81,-1.31 -1.27,0 -2.96,0.51 -2.93,2.13 0,1.42 1.44,1.71 2.85,1.98 1.27,0.25 2.54,0.5 2.53,1.65 0,1.37 -1.51,1.63 -2.45,1.63 -0.95,0 -2.16,-0.46 -2.63,-1.39 l -0.53,0.26 c 0.59,1.18 1.96,1.67 3.16,1.67 1.29,0 3.03,-0.42 3.04,-2.15 0,-1.67 -1.54,-1.93 -3.02,-2.22 -1.3,-0.24 -2.35,-0.47 -2.35,-1.45 0,-1.23 1.43,-1.56 2.33,-1.56 0.87,0.01 1.77,0.14 2.33,1.05 z"
                         transform="translate(-0.704,7.821)"
                         id="path656" />
                    </g>
                  </g>
                </g>
              </g>
            </g>
          </g>
        </g>
      </g>
    </mask>
    <mask
       id="mask664">
      <g
         id="g683"
         transform="matrix(1.1501519,0,0,1.1501519,-46.913741,0.00307598)">
        <g
           id="g682"
           transform="matrix(1.1501519,0,0,1.1501519,-46.913741,0.00307598)">
          <g
             id="g681">
            <g
               id="g680">
              <g
                 fill="#ffffff"
                 id="g669"
                 transform="translate(161.2725,67.755054)">
                <g
                   id="g668">
                  <rect
                     fill-opacity="1"
                     stroke-width="2"
                     x="0"
                     y="0"
                     width="103.5"
                     height="114.48988"
                     class="image-rect"
                     id="rect664" />
                  <svg
                     x="0"
                     y="0"
                     width="103.5"
                     height="114.48988"
                     filtersec="colorsb978988562"
                     class="image-svg-svg primary"
                     style="overflow:visible"
                     version="1.1"
                     id="svg668">
                    <svg
                       viewBox="-0.0034506619 0.0030755417 135.584 149.98071"
                       version="1.1"
                       id="svg667"
                       width="100%"
                       height="100%">
                      <path
                         d="m 104.25,22.18 c 2.06,0.69 4.16,1.29 6.18,2.09 a 69.41,69.41 0 0 1 22.85,14.65 6.87,6.87 0 0 1 1.72,3.71 c 1.92,11.77 -1,22.51 -7.61,32.22 -9.13,13.38 -21.9,21.39 -37.73,24.43 a 91,91 0 0 1 -11.1,1 14,14 0 0 1 -2.62,-0.33 V 99.58 C 77.2,99.03 78.46,98.51 79.7,97.93 93.26,91.6 102.15,81.07 106.77,67 c 4.67,-14.27 3.57,-28.38 -2,-42.23 l -0.87,-2.16 z"
                         id="path664" />
                      <path
                         d="m 40.43,16.92 c 1.41,-1.25 2.79,-2.55 4.25,-3.75 A 72.36,72.36 0 0 1 68.75,0.3 a 6.43,6.43 0 0 1 4.41,0.2 41.48,41.48 0 0 1 19.4,14.79 c 9.48,12.94 12.15,27.48 9.8,43.12 a 52,52 0 0 1 -7.56,20.21 4.89,4.89 0 0 1 -1.56,1.59 12.18,12.18 0 0 1 0,-1.48 C 95.76,58.68 88.32,42.78 72.9,30.34 63.9,23.08 53.41,19.21 42.01,17.66 41.54,17.6 41.07,17.5 40.6,17.43 Z m 2,52.8 c -0.11,1.07 -0.21,2.13 -0.33,3.2 -1.43,12.1 1.48,23.16 8.07,33.32 A 54.3,54.3 0 0 0 63,120 62.47,62.47 0 0 0 92.65,132.2 c 0.82,0.12 1.63,0.27 2.44,0.4 l 0.15,0.47 c -1.69,1.47 -3.34,3 -5.08,4.39 A 72.74,72.74 0 0 1 66.33,149.8 6.38,6.38 0 0 1 61.82,149.24 42.27,42.27 0 0 1 38.9,128.15 c -9.12,-18.22 -8.86,-36.52 0.56,-54.62 0.72,-1.39 1.69,-2.65 2.54,-4 z"
                         id="path665" />
                      <path
                         d="M 4,70.13 A 59.17,59.17 0 0 1 1.87,56.32 71.57,71.57 0 0 1 3.87,36 a 3.85,3.85 0 0 1 1,-1.78 37.51,37.51 0 0 1 18.22,-9.54 c 14.38,-3.27 27.77,-0.45 40.31,7 a 55.11,55.11 0 0 1 20.66,21.01 c 0.39,0.7 0.71,1.44 1,2.17 a 3.1,3.1 0 0 1 0.08,0.78 6,6 0 0 1 -1,-0.52 C 66.13,41.44 46.94,40.74 27,50.36 18.2,54.58 11.15,61 5.25,68.67 4.92,69.09 4.56,69.48 4,70.13 Z m 46.59,24.25 c 1.76,1.23 3.47,2.54 5.28,3.69 a 48.56,48.56 0 0 0 30.93,7.72 c 17.77,-1.49 31.81,-9.9 42.87,-23.66 0.5,-0.62 1,-1.23 1.72,-2.07 a 9.37,9.37 0 0 1 0.7,1.57 67.4,67.4 0 0 1 1.46,20.71 c -0.33,3.4 -1,6.77 -1.43,10.16 a 6.94,6.94 0 0 1 -2.8,4.62 c -9.42,7.57 -20.3,10.4 -32.1,9.34 C 79,124.82 64.55,116.2 53.93,101.29 a 74.89,74.89 0 0 1 -3.81,-6.57 z"
                         id="path666" />
                      <path
                         d="m 59.56,50.44 c -1.37,0.61 -2.75,1.18 -4.1,1.83 C 42.56,58.41 34,68.42 29.19,81.78 a 58,58 0 0 0 -2.74,27.4 64.67,64.67 0 0 0 4.67,17 c 0.15,0.36 0.26,0.73 0.49,1.38 A 8.78,8.78 0 0 1 30,127.37 69.7,69.7 0 0 1 5.89,114.24 c -1,-0.8 -1.83,-1.76 -2.86,-2.45 -1.79,-1.19 -2.27,-3 -2.56,-4.9 C -1.22,95.3 1.68,84.76 8.12,75.2 16.34,63 27.88,55.33 42,51.45 a 50.64,50.64 0 0 1 16.31,-1.62 10.9,10.9 0 0 1 1.27,0.23 z"
                         id="path667" />
                    </svg>
                  </svg>
                </g>
              </g>
              <g
                 transform="translate(75.227502,105.06587)"
                 id="g670">
                <rect
                   fill="#000000"
                   fill-opacity="1"
                   x="-3.5"
                   y="-3.5"
                   width="154.59"
                   height="36.849998"
                   id="rect669" />
                <rect
                   fill="#000000"
                   fill-opacity="1"
                   x="-3.5"
                   y="-3.5"
                   transform="translate(9.6090576,36.85)"
                   width="79.361801"
                   height="17.017"
                   id="rect670" />
              </g>
              <g
                 transform="translate(75.227502,105.06587)"
                 fill="#000000"
                 id="g679">
                <g
                   fill-rule=""
                   class="tp-name"
                   id="g675">
                  <g
                     id="g674">
                    <g
                       id="g671">
                      <path
                         d="M 11.17,-2.38 2.58,-27.82 H 0.32 l 9.74,27.9 h 2.3 l 4.45,-13.12 3.5,-10.93 3.5,11.01 4.41,13.04 h 2.31 l 9.81,-27.9 h -2.3 l -8.63,25.44 -8.5,-25.44 h -1.2 z m 38.12,2.66 c 3.14,0 6.56,-1.27 8.46,-3.78 l -1.39,-1.11 c -1.47,1.95 -4.49,2.98 -7.07,2.98 -4.06,0 -7.59,-2.66 -7.99,-7.27 h 17.69 c 0.75,-7.67 -4.18,-11.05 -9.7,-11.05 -5.53,0 -9.98,4.25 -9.98,10.13 0,6.24 4.45,10.1 9.98,10.1 z M 41.3,-10.61 c 0.43,-4.81 3.93,-7.55 7.99,-7.55 4.73,0 7.91,2.7 7.95,7.55 z m 32.71,-7.48 c 4.41,0 8.03,2.75 8.03,8.27 0,5.45 -3.62,8.23 -8.03,8.23 -4.61,0 -8.03,-3.38 -8.03,-8.27 0,-4.89 3.5,-8.23 8.03,-8.23 z m -9.98,-9.73 V 0 h 1.91 v -4.33 c 1.63,2.98 4.85,4.65 8.19,4.65 5.48,0 9.82,-3.62 9.82,-10.14 0,-6.48 -4.38,-10.13 -9.86,-10.13 -3.38,0 -6.56,1.43 -8.15,4.61 v -12.48 z"
                         transform="translate(-0.32000002,28.34)"
                         id="path670" />
                    </g>
                    <g
                       transform="translate(86.629997)"
                       id="g673">
                      <g
                         id="g672">
                        <path
                           d="m 20.94,-28.34 v 0 q -0.31,1.15 -0.99,2.71 -0.68,1.56 -1.56,3.42 -0.88,1.85 -1.89,3.91 -1.01,2.06 -1.98,4.16 -0.97,2.11 -1.82,4.2 -0.84,2.1 -1.4,4.02 v 0 q 1.22,-0.25 2.42,-0.58 1.2,-0.33 2.36,-0.8 1.15,-0.46 2.26,-1.12 1.11,-0.66 2.14,-1.59 v 0 q -0.12,1.02 -0.19,2.02 -0.07,1 -0.07,1.99 v 0 q 0,1.61 0.17,3.21 0.16,1.61 0.51,3.18 v 0 q -2.42,-0.35 -5.02,-0.53 -2.6,-0.17 -5.26,-0.17 v 0 q -2.72,0 -5.39,0.17 -2.67,0.18 -5.19,0.53 v 0 q 2.44,-5.98 5.13,-11.4 2.69,-5.43 5.68,-10.38 v 0 q -2.43,0.12 -4.92,0.9 -2.49,0.77 -4.86,2.09 v 0 q 0.15,-1.09 0.24,-2.12 0.09,-1.04 0.09,-2.05 v 0 q 0,-1.42 -0.17,-2.79 -0.16,-1.36 -0.55,-2.7 v 0 q 2.1,0.23 4.33,0.36 2.23,0.12 4.54,0.12 v 0 q 2.93,0 5.81,-0.2 2.88,-0.21 5.58,-0.56 z m 18.21,10.29 v 0 q 0,1.46 -0.42,2.83 -0.42,1.38 -1.47,2.45 -1.04,1.07 -2.82,1.71 -1.78,0.64 -4.51,0.64 v 0 q 0.07,0.95 0.39,1.59 0.33,0.64 0.77,1.03 0.45,0.39 0.95,0.58 0.51,0.19 0.93,0.27 0.43,0.08 0.72,0.08 0.29,0 0.29,0 v 0 q 1.21,-0.14 2.16,-0.62 v 0 q 0.41,-0.2 0.79,-0.5 0.39,-0.3 0.71,-0.71 0.32,-0.42 0.53,-0.96 0.2,-0.53 0.24,-1.23 v 0 q 0.5,1.26 0.71,2.36 0.2,1.1 0.2,2.05 v 0 q 0,1.74 -0.63,3.21 -0.63,1.47 -1.74,2.53 -1.1,1.07 -2.63,1.66 -1.52,0.59 -3.31,0.59 v 0 q -1.74,0 -3.36,-0.6 Q 26.03,0.31 24.77,-1 23.52,-2.31 22.78,-4.41 22.03,-6.5 22.03,-9.49 v 0 q 0,-3.24 0.93,-5.75 0.93,-2.5 2.5,-4.2 1.58,-1.7 3.64,-2.58 2.07,-0.88 4.34,-0.88 v 0 q 1.13,0 2.16,0.25 1.04,0.25 1.83,0.84 0.78,0.58 1.25,1.5 0.47,0.92 0.47,2.26 z m -9.3,4.43 v 0 q 0.54,-0.02 1.26,-0.23 0.72,-0.2 1.36,-0.57 0.64,-0.37 1.08,-0.91 0.43,-0.55 0.43,-1.24 v 0 q 0,-0.45 -0.31,-0.72 -0.31,-0.27 -0.79,-0.27 v 0 q -0.68,0 -1.22,0.38 -0.53,0.39 -0.91,0.97 -0.38,0.59 -0.61,1.29 -0.23,0.69 -0.29,1.3 z M 61,0.39 v 0 Q 60.4,0.29 59.68,0.26 58.96,0.23 58.19,0.23 v 0 q -0.94,0 -1.9,0.05 -0.96,0.05 -1.87,0.13 -0.91,0.08 -1.73,0.17 -0.81,0.1 -1.41,0.18 v 0 q 0.83,-2.82 1.29,-6.02 0.45,-3.2 0.45,-7.1 v 0 q 0,-0.29 -0.01,-0.78 -0.01,-0.48 -0.05,-1.05 -0.03,-0.56 -0.12,-1.13 -0.09,-0.58 -0.25,-1.04 -0.17,-0.47 -0.42,-0.76 -0.25,-0.29 -0.62,-0.29 v 0 q -0.55,0 -1.06,0.39 -0.51,0.39 -0.91,1.03 -0.4,0.64 -0.64,1.47 -0.25,0.84 -0.25,1.73 v 0 q 0,1.61 0.08,3.27 0.08,1.66 0.25,3.29 0.18,1.63 0.45,3.19 0.27,1.56 0.68,2.96 v 0 Q 49.82,-0.1 49.37,-0.14 v 0 q -0.38,-0.02 -0.91,-0.03 -0.52,-0.02 -1.2,-0.02 v 0 q -1.26,0 -2.91,0.1 -1.65,0.11 -3.57,0.4 v 0 q 0.23,-1.09 0.4,-2.66 0.18,-1.57 0.29,-3.41 0.12,-1.85 0.19,-3.86 0.07,-2.01 0.07,-3.97 v 0 q 0,-1.45 -0.04,-2.85 -0.04,-1.4 -0.11,-2.64 -0.07,-1.24 -0.18,-2.29 -0.12,-1.05 -0.27,-1.8 v 0 q 1.57,0.27 2.91,0.38 1.34,0.1 2.42,0.1 v 0 q 0.7,0 1.25,-0.03 0.56,-0.03 0.95,-0.06 v 0 q 0.46,-0.06 0.81,-0.12 v 0 q -0.12,0.6 -0.22,1.28 -0.11,0.68 -0.21,1.47 v 0 q 0.64,-0.81 1.36,-1.42 0.72,-0.61 1.45,-1.02 0.73,-0.41 1.44,-0.61 0.72,-0.21 1.36,-0.21 v 0 q 1.4,0 2.42,0.58 1.02,0.57 1.69,1.79 0.67,1.22 1,3.13 0.33,1.9 0.33,4.56 v 0 q 0,1.82 0.01,3.7 0.01,1.89 0.08,3.69 0.08,1.81 0.28,3.43 0.19,1.62 0.54,2.92 z"
                           transform="translate(-0.04,28.34)"
                           id="path671" />
                      </g>
                    </g>
                  </g>
                </g>
                <g
                   fill-rule=""
                   class="tp-slogan"
                   transform="translate(9.6140976,36.85)"
                   fill="#ffffff"
                   id="g678">
                  <g
                     id="g677">
                    <g
                       transform="scale(1.26)"
                       id="g676">
                      <path
                         d="m 4.08,-7.15 c 2.56,0 2.56,3.95 0,3.95 H 1.3 v -3.95 z m 0,4.49 c 3.34,0 3.34,-5.04 0,-5.04 -1.12,0 -2.25,0 -3.38,0 V 0 h 0.6 v -2.66 z m 7.25,-0.29 c 1.68,0 2.51,-1.1 2.5,-2.35 -0.01,-1.2 -0.86,-2.4 -2.53,-2.4 -1.14,0 -2.26,0 -3.39,0 V 0 H 8.5 v -2.92 h 2.1 L 13.27,0 h 0.78 z M 8.5,-7.15 h 2.8 c 1.27,0 1.89,0.94 1.88,1.84 -0.01,1.08 -0.61,1.83 -1.95,1.83 H 8.5 Z m 10.09,-0.67 c -2.6,0 -3.88,1.89 -3.88,3.96 0,2.03 1.29,3.99 3.88,3.99 2.58,0 3.87,-1.94 3.88,-3.97 0.01,-2.08 -1.28,-3.98 -3.88,-3.98 z m 0,0.55 c 2.21,0 3.31,1.64 3.31,3.42 0,1.74 -1.11,3.43 -3.31,3.43 -2.19,0 -3.29,-1.69 -3.3,-3.43 -0.01,-1.82 1.09,-3.42 3.3,-3.42 z m 10.48,4.37 c 0,1.59 -1.04,2.47 -2.46,2.47 -1.42,0 -2.49,-1.01 -2.49,-2.47 h -0.55 c 0,1.79 1.29,3.02 3.04,3.02 1.75,0 3.05,-1.13 3.05,-3.02 v -4.8 h -3.53 v 0.52 h 2.94 z m 2.86,-4.24 h 4.73 V -7.7 H 31.35 V 0 h 5.45 v -0.57 h -4.87 v -3.04 h 4.51 v -0.54 h -4.51 z m 12.14,5.7 c -0.66,0.65 -1.54,0.98 -2.41,0.98 -2.23,0 -3.37,-1.56 -3.39,-3.37 -0.01,-1.85 1.14,-3.43 3.39,-3.43 0.87,0 1.73,0.32 2.39,0.98 l 0.41,-0.35 c -0.77,-0.77 -1.79,-1.16 -2.8,-1.16 -2.64,0 -3.99,1.93 -3.96,3.98 0.01,2.08 1.36,3.9 3.96,3.9 1.01,0 2.03,-0.39 2.8,-1.16 z M 47.93,0 h 0.59 v -7.16 h 2.78 v -0.53 h -6.16 v 0.53 h 2.79 z m 9.97,-6.5 c -0.75,-1.13 -1.71,-1.31 -2.81,-1.31 -1.27,0 -2.96,0.51 -2.93,2.13 0,1.42 1.44,1.71 2.85,1.98 1.27,0.25 2.54,0.5 2.53,1.65 0,1.37 -1.51,1.63 -2.45,1.63 -0.95,0 -2.16,-0.46 -2.63,-1.39 l -0.53,0.26 c 0.59,1.18 1.96,1.67 3.16,1.67 1.29,0 3.03,-0.42 3.04,-2.15 0,-1.67 -1.54,-1.93 -3.02,-2.22 -1.3,-0.24 -2.35,-0.47 -2.35,-1.45 0,-1.23 1.43,-1.56 2.33,-1.56 0.87,0.01 1.77,0.14 2.33,1.05 z"
                         transform="translate(-0.704,7.821)"
                         id="path675" />
                    </g>
                  </g>
                </g>
              </g>
            </g>
          </g>
        </g>
      </g>
    </mask>
    <linearGradient
       inkscape:collect="always"
       xlink:href="#4lCRo9H0YgxJw8IeF0FI2"
       id="linearGradient1"
       gradientUnits="userSpaceOnUse"
       gradientTransform="matrix(0.9851162,0,0,1.0788505,153.65685,59.799599)"
       x1="0"
       y1="120.87011"
       x2="0"
       y2="0" />
    <mask
       id="mask1">
      <path
         id="path1"
         style="fill:#ffffff;stroke-width:0.869449"
         d="m 215.70581,60.204353 a 5.5905661,5.5905661 0 0 0 -1.93256,0.252487 62.91343,62.91343 0 0 0 -20.92763,11.189897 c -1.2694,1.043338 -2.46918,2.173591 -3.6951,3.260402 l 0.14768,0.443429 c 0.40863,0.06086 0.81743,0.147704 1.22607,0.199877 9.91174,1.347647 19.03229,4.71255 26.85734,11.024753 13.40692,10.815954 19.87551,24.640152 17.68449,42.072622 a 10.589906,10.589906 0 0 0 0,1.28681 4.2516123,4.2516123 0 0 0 1.35649,-1.38249 45.211421,45.211421 0 0 0 6.57302,-17.57156 c 2.04319,-13.598186 -0.27823,-26.239986 -8.5206,-37.490662 a 36.064801,36.064801 0 0 0 -16.86732,-12.8592 5.5905661,5.5905661 0 0 0 -1.90188,-0.426365 z m 28.93289,19.276002 -0.30428,0.373958 0.75644,1.877916 c 4.84284,12.041876 5.7993,24.309911 1.73898,36.716951 -4.01685,12.23315 -11.74627,21.38847 -23.53599,26.89207 -1.07812,0.50428 -2.17364,0.95648 -3.26914,1.43469 v 0.32155 a 12.172305,12.172305 0 0 0 2.27788,0.28703 79.119984,79.119984 0 0 0 9.65099,-0.86939 c 13.76339,-2.64314 24.86622,-9.60763 32.80431,-21.24087 5.74705,-8.44234 8.28582,-17.78011 6.61647,-28.01353 a 5.9731242,5.9731242 0 0 0 -1.49542,-3.225668 60.348552,60.348552 0 0 0 -19.8669,-12.737526 c -1.7563,-0.695561 -3.58227,-1.217261 -5.37334,-1.817181 z m -61.347,1.014217 c -3.01997,0.06874 -6.09185,0.448678 -9.21752,1.159453 a 32.613083,32.613083 0 0 0 -15.84132,8.294514 3.3473839,3.3473839 0 0 0 -0.86959,1.54763 62.226563,62.226563 0 0 0 -1.73877,17.667231 51.44538,51.44538 0 0 0 1.85192,12.00708 c 0.48689,-0.56514 0.79981,-0.90418 1.08673,-1.26934 5.12975,-6.66869 11.25942,-12.25065 18.91058,-15.91973 17.33682,-8.364102 34.02152,-7.755341 49.68035,4.13873 a 5.2167023,5.2167023 0 0 0 0.86959,0.45216 2.6952962,2.6952962 0 0 0 -0.0697,-0.67824 c -0.25215,-0.6347 -0.5303,-1.27804 -0.86938,-1.88665 A 47.91541,47.91541 0 0 0 209.12183,87.740136 c -8.17718,-4.858048 -16.77019,-7.451787 -25.83013,-7.245564 z m 16.63596,22.981458 a 44.028968,44.028968 0 0 0 -9.41213,1.45318 c -12.27662,3.37346 -22.31008,10.04227 -29.45696,20.64955 -5.59925,8.31194 -8.12078,17.47593 -6.65141,27.55285 0.25214,1.65195 0.66956,3.22556 2.22587,4.2602 0.89553,0.59992 1.61724,1.43464 2.48669,2.13019 a 60.600692,60.600692 0 0 0 20.96237,11.41598 7.6337745,7.6337745 0 0 0 1.39975,0.16514 c -0.19997,-0.56515 -0.29554,-0.88688 -0.42596,-1.19987 a 56.227357,56.227357 0 0 1 -4.06032,-14.78059 50.428124,50.428124 0 0 1 2.38229,-23.82302 c 4.18205,-11.61584 11.62458,-20.31904 22.84048,-25.65746 1.17376,-0.56514 2.37353,-1.06073 3.56469,-1.59109 l 0.0175,-0.33049 a 9.4770093,9.4770093 0 0 0 -1.10421,-0.19988 44.028968,44.028968 0 0 0 -4.76862,-0.0447 z m -9.41213,17.17282 c -0.73902,1.17376 -1.58239,2.26921 -2.20839,3.47775 -8.19022,15.73704 -8.41629,31.64805 -0.48691,47.48942 a 36.751668,36.751668 0 0 0 19.92784,18.33675 5.5470936,5.5470936 0 0 0 3.92118,0.48689 63.243821,63.243821 0 0 0 20.71903,-10.729 c 1.51284,-1.20855 2.94743,-2.53888 4.4168,-3.81698 l -0.1304,-0.40848 c -0.70426,-0.11303 -1.40852,-0.24358 -2.12147,-0.34796 A 54.314567,54.314567 0 0 1 208.77408,164.53011 47.211156,47.211156 0 0 1 197.61891,152.5665 c -5.72967,-8.8336 -8.25974,-18.44992 -7.01643,-28.97027 0.10434,-0.9303 0.19121,-1.85194 0.28681,-2.78224 z m 77.72011,9.15537 c -0.62601,0.73034 -1.06071,1.26064 -1.49543,1.79971 -9.61611,11.96362 -21.82318,19.27566 -37.27331,20.57114 a 42.220511,42.220511 0 0 1 -26.89208,-6.71214 c -1.5737,-0.99987 -3.06046,-2.13878 -4.59068,-3.2082 l -0.40869,0.29555 a 65.11314,65.11314 0 0 0 3.3126,5.71235 c 9.23354,12.96349 21.79717,20.45805 37.63855,21.88396 10.25949,0.92162 19.71911,-1.53891 27.90932,-8.12063 a 6.0339857,6.0339857 0 0 0 2.43449,-4.01685 c 0.37386,-2.94744 0.95643,-5.87749 1.24335,-8.83362 a 58.600956,58.600956 0 0 0 -1.26955,-18.00626 8.1467501,8.1467501 0 0 0 -0.60857,-1.36501 z" />
    </mask>
  </defs>
  <sodipodi:namedview
     id="namedview65"
     pagecolor="#ffffff"
     bordercolor="#000000"
     borderopacity="0.25"
     inkscape:showpageshadow="2"
     inkscape:pageopacity="0.0"
     inkscape:pagecheckerboard="0"
     inkscape:deskcolor="#d1d1d1"
     inkscape:zoom="0.37"
     inkscape:cx="612.16216"
     inkscape:cy="658.10811"
     inkscape:window-width="1920"
     inkscape:window-height="1017"
     inkscape:window-x="-8"
     inkscape:window-y="-8"
     inkscape:window-maximized="1"
     inkscape:current-layer="svg65" />
  <rect
     v-gra="id"
     width="119.0711"
     height="130.40077"
     style="fill:url(#linearGradient1);stroke-width:1.03092"
     fill="url(#4lCRo9H0YgxJw8IeF0FI2)"
     id="rect1"
     x="153.65686"
     y="59.799603"
     mask="url(#mask1)"
     transform="matrix(0.79909166,0,0,0.79909166,-44.942793,11.69535)" />
</svg>
